<svg xmlns="http://www.w3.org/2000/svg" width="35" height="39" fill="none"><path fill="#9E9E9E" d="M17.5.75C10.016.75 3.958 6.909 3.958 14.457v6.57c-1.85.815-3.333 2.332-3.333 4.468 0 2.865 2.34 5.255 5.208 5.255h23.335c2.867 0 5.207-2.39 5.207-5.255 0-2.136-1.483-3.653-3.332-4.468v-6.57C31.043 6.91 24.983.75 17.5.75Zm9.793 13.707c.003 2.49.001 5.116-.015 7.559-.055 1.07.798 1.97 1.757 1.97.958 0 1.59.628 1.59 1.509 0 .881-.632 1.505-1.458 1.505H5.832c-.826 0-1.457-.624-1.457-1.505 0-.881.631-1.509 1.589-1.51.957 0 1.81-.896 1.758-1.965-.039-2.481-.015-5.048-.015-7.563 0-5.564 4.35-9.957 9.792-9.957 5.443 0 9.794 4.393 9.794 9.957ZM13.75 34.5a1.875 1.875 0 0 0 0 3.75h7.5a1.875 1.875 0 0 0 0-3.75h-7.5Z"/></svg>