<svg xmlns="http://www.w3.org/2000/svg" width="40" height="40" fill="none"><g clip-path="url(#a)"><path fill="#9E9E9E" d="M12.5 35.938a2.188 2.188 0 1 0 0-4.376 2.188 2.188 0 0 0 0 4.375Zm16.25 0a2.188 2.188 0 1 0 0-4.376 2.188 2.188 0 0 0 0 4.375Z"/><path stroke="#9E9E9E" stroke-linecap="round" stroke-linejoin="round" stroke-width="3" d="M6.61 11.25h28.03l-4.124 14.438a2.485 2.485 0 0 1-2.407 1.812H13.141a2.485 2.485 0 0 1-2.407-1.813L5.078 5.907A1.25 1.25 0 0 0 3.875 5H1.25"/></g><defs><clipPath id="a"><path fill="#fff" d="M0 0h40v40H0z"/></clipPath></defs></svg>