<svg xmlns="http://www.w3.org/2000/svg" width="104" height="104" fill="none"><path fill="#F54B64" fill-opacity=".5" d="M19.125 26.042h10.05l3.089-8.718c.96-2.881 3.647-4.262 6.684-4.262h26.105c3.038 0 5.724 1.38 6.685 4.262l3.089 8.718h10.05c6.472 0 10.388 5.395 10.388 11.867v42.269c0 6.472-3.916 10.76-10.388 10.76H19.129c-6.477 0-10.392-4.288-10.392-10.76V37.909c0-6.472 3.915-11.867 10.388-11.867Zm-6.062 54.136c0 3.885 2.176 6.433 6.062 6.433h65.752c3.885 0 6.061-2.548 6.061-6.433V37.909c0-3.88-2.176-7.54-6.061-7.54H73.135c-1.012 0-1.908-.399-2.228-1.355l-3.625-10.448c-.32-.96-1.216-1.177-2.228-1.177H38.947c-1.012 0-1.908.337-2.228 1.302l-3.626 10.474c-.32.957-1.215 1.203-2.228 1.203h-11.74c-3.886 0-6.062 3.66-6.062 7.541v42.269Z"/><path fill="#F54B64" fill-opacity=".5" d="M52 33.215c12.95 0 23.484 10.535 23.484 23.483 0 12.95-10.534 23.48-23.483 23.48-12.95 0-23.484-10.535-23.484-23.484 0-12.949 10.535-23.48 23.484-23.48Zm0 42.269c10.358 0 18.786-8.428 18.786-18.785 0-10.358-8.428-18.79-18.785-18.79-10.358 0-18.785 8.428-18.785 18.785 0 10.358 8.427 18.79 18.785 18.79Z"/></svg>