<svg xmlns="http://www.w3.org/2000/svg" width="30" height="30" fill="none"><g clip-path="url(#a)"><path fill="#9E9E9E" d="M29.148 5.401 24.6.851A2.888 2.888 0 0 0 22.543 0c-.776 0-1.507.302-2.056.852L1.443 19.896c-.18.18-.297.416-.332.669l-1.1 8.11a1.168 1.168 0 0 0 1.315 1.314l8.11-1.1c.252-.035.487-.151.668-.332L29.148 9.513c.55-.55.852-1.28.852-2.056 0-.777-.302-1.507-.852-2.056ZM8.73 26.626l-6.197.84.841-6.196L16.87 7.775l5.356 5.355L8.73 26.627ZM27.496 7.86l-3.618 3.618-5.356-5.356 3.618-3.618a.568.568 0 0 1 .806 0l4.55 4.55a.568.568 0 0 1 0 .806Z"/></g><defs><clipPath id="a"><path fill="#fff" d="M0 0h30v30H0z"/></clipPath></defs></svg>