<svg xmlns="http://www.w3.org/2000/svg" width="47" height="47" fill="none"><rect width="47" height="47" fill="#34302D" rx="15"/><path fill="#D9D9D9" d="M9.833 32.042h13.838c.683 2.904 3.416 5.125 6.662 5.125s5.809-2.221 6.663-5.125h.17c1.026 0 1.709-.684 1.709-1.709s-.683-1.708-1.708-1.708h-.171c-.684-2.904-3.417-5.125-6.663-5.125-3.245 0-5.808 2.22-6.662 5.125H9.833c-1.025 0-1.708.683-1.708 1.708s.683 1.709 1.708 1.709Zm20.5-5.125a3.427 3.427 0 0 1 3.417 3.416 3.427 3.427 0 0 1-3.417 3.417 3.427 3.427 0 0 1-3.416-3.417 3.427 3.427 0 0 1 3.416-3.416Zm-20.5-8.542h.171c.684 2.904 3.417 5.125 6.663 5.125 3.245 0 5.808-2.22 6.662-5.125h13.838c1.025 0 1.708-.683 1.708-1.708s-.683-1.709-1.708-1.709H23.329c-.683-2.904-3.416-5.124-6.662-5.124s-5.809 2.22-6.663 5.125h-.17c-1.026 0-1.709.683-1.709 1.708s.683 1.708 1.708 1.708Zm6.834-5.125a3.427 3.427 0 0 1 3.416 3.417 3.427 3.427 0 0 1-3.416 3.416 3.427 3.427 0 0 1-3.417-3.416 3.427 3.427 0 0 1 3.417-3.417Z"/></svg>