<svg width="30" height="30" viewBox="0 0 30 30" fill="none" xmlns="http://www.w3.org/2000/svg">
<path d="M15.01 8.60791C11.4019 8.60791 8.41235 11.5459 8.41235 15.2055C8.41235 18.8652 11.3504 21.8032 15.01 21.8032C18.6696 21.8032 21.6076 18.8136 21.6076 15.2055C21.6076 11.5975 18.6181 8.60791 15.01 8.60791ZM15.01 19.4322C12.6905 19.4322 10.7834 17.525 10.7834 15.2055C10.7834 12.8861 12.6905 10.9789 15.01 10.9789C17.3295 10.9789 19.2366 12.8861 19.2366 15.2055C19.2366 17.525 17.3295 19.4322 15.01 19.4322Z" fill="#9E9E9E"/>
<path d="M21.8653 9.94805C22.6909 9.94805 23.3601 9.27881 23.3601 8.45327C23.3601 7.62773 22.6909 6.9585 21.8653 6.9585C21.0398 6.9585 20.3705 7.62773 20.3705 8.45327C20.3705 9.27881 21.0398 9.94805 21.8653 9.94805Z" fill="#9E9E9E"/>
<path d="M25.7311 4.58742C24.391 3.19574 22.4838 2.47412 20.319 2.47412H9.70093C5.2166 2.47412 2.22705 5.46367 2.22705 9.948V20.5145C2.22705 22.7309 2.94867 24.638 4.3919 26.0297C5.78359 27.3699 7.63917 28.0399 9.75248 28.0399H20.2675C22.4838 28.0399 24.3394 27.3183 25.6796 26.0297C27.0713 24.6896 27.7929 22.7825 27.7929 20.5661V9.948C27.7929 7.78315 27.0713 5.92757 25.7311 4.58742ZM25.5249 20.5661C25.5249 22.1639 24.958 23.4525 24.0302 24.3288C23.1024 25.205 21.8138 25.6689 20.2675 25.6689H9.75248C8.20616 25.6689 6.91755 25.205 5.98976 24.3288C5.06197 23.401 4.59807 22.1124 4.59807 20.5145V9.948C4.59807 8.40168 5.06197 7.11308 5.98976 6.18529C6.86601 5.30904 8.20616 4.84514 9.75248 4.84514H20.3705C21.9169 4.84514 23.2055 5.30904 24.1333 6.23683C25.0095 7.16463 25.5249 8.45323 25.5249 9.948V20.5661Z" fill="#9E9E9E"/>
</svg>
