<svg width="33" height="32" viewBox="0 0 33 32" fill="none" xmlns="http://www.w3.org/2000/svg">
<path fill-rule="evenodd" clip-rule="evenodd" d="M30.742 8.23893C30.9642 7.53487 30.742 7.02306 29.7589 7.02306H26.4902C25.6657 7.02306 25.2849 7.47121 25.0627 7.95057C25.0627 7.95057 23.3812 12.0451 21.0331 14.6997C20.2716 15.4674 19.9227 15.7233 19.5101 15.7233C19.2879 15.7233 19.0021 15.4674 19.0021 14.764V8.20585C19.0021 7.37446 18.7487 6.9906 18.0502 6.9906H12.9096C12.4015 6.9906 12.0844 7.37446 12.0844 7.75832C12.0844 8.55788 13.2585 8.75012 13.3852 10.989V15.8538C13.3852 16.9092 13.198 17.1021 12.7823 17.1021C11.6719 17.1021 8.97486 12.9757 7.35702 8.27389C7.04244 7.34263 6.72287 6.9906 5.89772 6.9906H2.59776C1.6459 6.9906 1.48737 7.43813 1.48737 7.91811C1.48737 8.78196 2.59776 13.1318 6.6592 18.8891C9.35622 22.8213 13.1955 24.9347 16.654 24.9347C18.7487 24.9347 19.0021 24.4548 19.0021 23.6552V20.6804C19.0021 19.7211 19.1924 19.5613 19.8591 19.5613C20.3347 19.5613 21.1917 19.8166 23.1272 21.7041C25.348 23.9429 25.7287 24.9666 26.9664 24.9666H30.2346C31.1864 24.9666 31.6308 24.4866 31.3768 23.5591C31.0915 22.6316 30.0124 21.2884 28.6161 19.6893C27.8546 18.7942 26.7124 17.8024 26.3635 17.3224C25.8879 16.6826 26.0146 16.4267 26.3635 15.8513C26.3317 15.8513 30.3301 10.1576 30.742 8.23644" fill="#9E9E9E"/>
</svg>
