<svg width="32" height="32" viewBox="0 0 32 32" fill="none" xmlns="http://www.w3.org/2000/svg">
<g clip-path="url(#clip0_7_326)">
<path d="M31.024 8.15311C30.6625 6.80025 29.5972 5.73497 28.2444 5.37346C25.7922 4.71631 15.9601 4.71631 15.9601 4.71631C15.9601 4.71631 6.12812 4.71631 3.67584 5.37346C2.32329 5.73497 1.25777 6.80025 0.896189 8.15311C0.239349 10.6051 0.239349 15.721 0.239349 15.721C0.239349 15.721 0.239349 20.8369 0.896189 23.2887C1.25777 24.6415 2.32329 25.7071 3.67584 26.0686C6.12812 26.7255 15.9601 26.7255 15.9601 26.7255C15.9601 26.7255 25.7922 26.7255 28.2444 26.0686C29.5972 25.7071 30.6625 24.6415 31.024 23.2887C31.6812 20.8369 31.6812 15.721 31.6812 15.721C31.6812 15.721 31.6812 10.6051 31.024 8.15311Z" fill="#9E9E9E"/>
<path d="M12.8159 20.4373L20.9845 15.721L12.8159 11.0046V20.4373Z" fill="#34302D"/>
</g>
<defs>
<clipPath id="clip0_7_326">
<rect width="31.4418" height="31.4418" fill="white" transform="translate(0.239349)"/>
</clipPath>
</defs>
</svg>
