<svg width="43" height="37" viewBox="0 0 43 37" fill="none" xmlns="http://www.w3.org/2000/svg">
<mask id="path-1-inside-1_8_523" fill="white">
<path d="M21.5 36.3875C20.9438 36.3889 20.3928 36.2802 19.8788 36.0678C19.3647 35.8555 18.8977 35.5435 18.5047 35.15L4.02033 20.6656C2.87612 19.509 1.97352 18.1362 1.36511 16.6273C0.756707 15.1183 0.454663 13.5034 0.476576 11.8766C0.487601 10.3857 0.792643 8.91168 1.37423 7.5389C1.95582 6.16613 2.80252 4.92158 3.86585 3.87654C4.92917 2.83151 6.18822 2.00652 7.57088 1.44883C8.95354 0.891147 10.4326 0.611721 11.9235 0.626559C13.441 0.611274 14.9461 0.900885 16.3495 1.47822C17.753 2.05555 19.0263 2.90884 20.0938 3.9875L21.5 5.39375L22.6531 4.24062C24.6443 2.19673 27.3086 0.943686 30.1528 0.71357C32.9969 0.483454 35.8281 1.29186 38.1219 2.98906C39.4276 3.9946 40.5041 5.26679 41.2797 6.72091C42.0554 8.17503 42.5123 9.77771 42.62 11.4222C42.7278 13.0667 42.484 14.7153 41.9048 16.2583C41.3256 17.8012 40.4243 19.203 39.2609 20.3703L24.4953 35.15C24.1023 35.5435 23.6353 35.8555 23.1212 36.0678C22.6072 36.2802 22.0562 36.3889 21.5 36.3875ZM11.8672 3.425C9.632 3.42272 7.48359 4.29015 5.87658 5.84375C5.05729 6.63201 4.40576 7.57772 3.96112 8.62409C3.51647 9.67045 3.28788 10.7959 3.28908 11.9328C3.27675 13.1834 3.51279 14.424 3.98351 15.5827C4.45423 16.7414 5.15026 17.7951 6.03126 18.6828L20.5156 33.1672C20.6464 33.299 20.8019 33.4036 20.9733 33.475C21.1446 33.5464 21.3284 33.5831 21.5141 33.5831C21.6997 33.5831 21.8835 33.5464 22.0549 33.475C22.2263 33.4036 22.3818 33.299 22.5125 33.1672L37.2922 18.3734C38.1597 17.4876 38.83 16.4281 39.259 15.2648C39.688 14.1014 39.866 12.8605 39.7813 11.6234C39.7062 10.3737 39.3619 9.15499 38.7722 8.05065C38.1824 6.9463 37.3609 5.98243 36.3641 5.225C34.6149 3.93532 32.4565 3.32551 30.291 3.5092C28.1256 3.69289 26.1007 4.65754 24.5938 6.22343L22.4985 8.375C22.3677 8.5068 22.2122 8.61142 22.0408 8.68281C21.8695 8.75421 21.6857 8.79096 21.5 8.79096C21.3144 8.79096 21.1306 8.75421 20.9592 8.68281C20.7878 8.61142 20.6323 8.5068 20.5016 8.375L18.111 5.98437C16.4644 4.3521 14.242 3.43283 11.9235 3.425H11.8672Z"/>
</mask>
<path d="M21.5 36.3875C20.9438 36.3889 20.3928 36.2802 19.8788 36.0678C19.3647 35.8555 18.8977 35.5435 18.5047 35.15L4.02033 20.6656C2.87612 19.509 1.97352 18.1362 1.36511 16.6273C0.756707 15.1183 0.454663 13.5034 0.476576 11.8766C0.487601 10.3857 0.792643 8.91168 1.37423 7.5389C1.95582 6.16613 2.80252 4.92158 3.86585 3.87654C4.92917 2.83151 6.18822 2.00652 7.57088 1.44883C8.95354 0.891147 10.4326 0.611721 11.9235 0.626559C13.441 0.611274 14.9461 0.900885 16.3495 1.47822C17.753 2.05555 19.0263 2.90884 20.0938 3.9875L21.5 5.39375L22.6531 4.24062C24.6443 2.19673 27.3086 0.943686 30.1528 0.71357C32.9969 0.483454 35.8281 1.29186 38.1219 2.98906C39.4276 3.9946 40.5041 5.26679 41.2797 6.72091C42.0554 8.17503 42.5123 9.77771 42.62 11.4222C42.7278 13.0667 42.484 14.7153 41.9048 16.2583C41.3256 17.8012 40.4243 19.203 39.2609 20.3703L24.4953 35.15C24.1023 35.5435 23.6353 35.8555 23.1212 36.0678C22.6072 36.2802 22.0562 36.3889 21.5 36.3875ZM11.8672 3.425C9.632 3.42272 7.48359 4.29015 5.87658 5.84375C5.05729 6.63201 4.40576 7.57772 3.96112 8.62409C3.51647 9.67045 3.28788 10.7959 3.28908 11.9328C3.27675 13.1834 3.51279 14.424 3.98351 15.5827C4.45423 16.7414 5.15026 17.7951 6.03126 18.6828L20.5156 33.1672C20.6464 33.299 20.8019 33.4036 20.9733 33.475C21.1446 33.5464 21.3284 33.5831 21.5141 33.5831C21.6997 33.5831 21.8835 33.5464 22.0549 33.475C22.2263 33.4036 22.3818 33.299 22.5125 33.1672L37.2922 18.3734C38.1597 17.4876 38.83 16.4281 39.259 15.2648C39.688 14.1014 39.866 12.8605 39.7813 11.6234C39.7062 10.3737 39.3619 9.15499 38.7722 8.05065C38.1824 6.9463 37.3609 5.98243 36.3641 5.225C34.6149 3.93532 32.4565 3.32551 30.291 3.5092C28.1256 3.69289 26.1007 4.65754 24.5938 6.22343L22.4985 8.375C22.3677 8.5068 22.2122 8.61142 22.0408 8.68281C21.8695 8.75421 21.6857 8.79096 21.5 8.79096C21.3144 8.79096 21.1306 8.75421 20.9592 8.68281C20.7878 8.61142 20.6323 8.5068 20.5016 8.375L18.111 5.98437C16.4644 4.3521 14.242 3.43283 11.9235 3.425H11.8672Z" fill="#9E9E9E"/>
<path d="M21.5 36.3875L21.5858 1.3876L21.5 1.38739L21.4142 1.3876L21.5 36.3875ZM18.5047 35.15L43.2689 10.4168L43.2612 10.409L43.2534 10.4013L18.5047 35.15ZM4.02033 20.6656L-20.8618 45.2802L-20.7953 45.3475L-20.7284 45.4144L4.02033 20.6656ZM0.476576 11.8766L35.4734 12.348L35.4748 12.2417L35.4756 12.1354L0.476576 11.8766ZM11.9235 0.626559L11.5751 35.6248L11.9255 35.6283L12.276 35.6248L11.9235 0.626559ZM20.0938 3.9875L-4.78323 28.6073L-4.71927 28.6719L-4.65497 28.7362L20.0938 3.9875ZM21.5 5.39375L-3.24872 30.1425L21.5 54.8912L46.2487 30.1425L21.5 5.39375ZM22.6531 4.24062L47.4019 28.9894L47.5637 28.8276L47.7234 28.6636L22.6531 4.24062ZM38.1219 2.98906L59.4768 -24.7412L59.2102 -24.9465L58.9396 -25.1467L38.1219 2.98906ZM39.2609 20.3703L64.0215 45.1073L64.0369 45.0919L64.0522 45.0764L39.2609 20.3703ZM24.4953 35.15L-0.265193 10.413L-0.268913 10.4168L24.4953 35.15ZM11.8672 3.425L11.8315 38.425L11.8493 38.425H11.8672V3.425ZM5.87658 5.84375L30.1432 31.0654L30.1734 31.0363L30.2036 31.0071L5.87658 5.84375ZM3.28908 11.9328L38.2874 12.2777L38.2893 12.0869L38.2891 11.8961L3.28908 11.9328ZM6.03126 18.6828L-18.8108 43.3379L-18.7642 43.3848L-18.7175 43.4315L6.03126 18.6828ZM20.5156 33.1672L45.3656 8.52013L45.3151 8.46918L45.2644 8.41845L20.5156 33.1672ZM22.5125 33.1672L-2.24799 8.43022L-2.29282 8.47509L-2.33749 8.52013L22.5125 33.1672ZM37.2922 18.3734L62.0527 43.1104L62.1762 42.9868L62.2984 42.862L37.2922 18.3734ZM39.7813 11.6234L4.84428 13.7228L4.85306 13.8689L4.86306 14.0149L39.7813 11.6234ZM36.3641 5.225L57.5389 -22.643L57.3378 -22.7959L57.1344 -22.9458L36.3641 5.225ZM24.5938 6.22343L49.6681 30.6422L49.7405 30.5679L49.8124 30.4931L24.5938 6.22343ZM22.4985 8.375L47.3484 33.0221L47.4611 32.9084L47.5728 32.7938L22.4985 8.375ZM22.0408 8.68281L35.501 40.9911L22.0408 8.68281ZM21.5 8.79096V-26.209V8.79096ZM20.9592 8.68281L7.49902 40.9911L20.9592 8.68281ZM20.5016 8.375L45.3516 -16.2721L45.301 -16.323L45.2503 -16.3737L20.5016 8.375ZM18.111 5.98437L42.8597 -18.7644L42.8057 -18.8184L42.7515 -18.8721L18.111 5.98437ZM11.9235 3.425L12.0417 -31.5748L11.9826 -31.575H11.9235V3.425ZM21.4142 1.3876C25.4723 1.37766 29.4924 2.17024 33.2432 3.71986L6.51436 68.4158C11.2933 70.3902 16.4153 71.4001 21.5858 71.3874L21.4142 1.3876ZM33.2432 3.71986C36.9938 5.26942 40.4011 7.54535 43.2689 10.4168L-6.25954 59.8832C-2.60563 63.5417 1.73562 66.4415 6.51436 68.4158L33.2432 3.71986ZM43.2534 10.4013L28.7691 -4.08311L-20.7284 45.4144L-6.24404 59.8987L43.2534 10.4013ZM28.9025 -3.94898C31.0241 -1.80428 32.6977 0.741173 33.8259 3.53908L-31.0956 29.7154C-28.7507 35.5312 -25.2719 40.8222 -20.8618 45.2802L28.9025 -3.94898ZM33.8259 3.53908C34.954 6.337 35.514 9.33145 35.4734 12.348L-34.5202 11.4052C-34.6047 17.6753 -33.4406 23.8996 -31.0956 29.7154L33.8259 3.53908ZM35.4756 12.1354C35.4526 15.2482 34.8157 18.3259 33.6014 21.1922L-30.8529 -6.11438C-33.2304 -0.502536 -34.4774 5.52322 -34.5225 11.6177L35.4756 12.1354ZM33.6014 21.1922C32.387 24.0585 30.6192 26.657 28.399 28.839L-20.6673 -21.0859C-25.0141 -16.8139 -28.4754 -11.7262 -30.8529 -6.11438L33.6014 21.1922ZM28.399 28.839C26.1788 31.021 23.55 32.7435 20.6631 33.908L-5.52131 -31.0103C-11.1736 -28.7305 -16.3205 -25.358 -20.6673 -21.0859L28.399 28.839ZM20.6631 33.908C17.7761 35.0724 14.6879 35.6558 11.5751 35.6248L12.2718 -34.3717C6.17741 -34.4324 0.130929 -33.2901 -5.52131 -31.0103L20.6631 33.908ZM12.276 35.6248C9.10752 35.6567 5.9649 35.052 3.03451 33.8466L29.6646 -30.8901C23.9272 -33.2502 17.7744 -34.4342 11.5709 -34.3717L12.276 35.6248ZM3.03451 33.8466C0.104126 32.6411 -2.55434 30.8595 -4.78323 28.6073L44.9708 -20.6323C40.6069 -25.0418 35.4019 -28.53 29.6646 -30.8901L3.03451 33.8466ZM-4.65497 28.7362L-3.24872 30.1425L46.2487 -19.355L44.8425 -20.7612L-4.65497 28.7362ZM46.2487 30.1425L47.4019 28.9894L-2.09559 -20.5081L-3.24872 -19.355L46.2487 30.1425ZM47.7234 28.6636C43.8078 32.6829 38.5683 35.147 32.9754 35.5996L27.3302 -34.1724C16.0489 -33.2597 5.4807 -28.2895 -2.41708 -20.1824L47.7234 28.6636ZM32.9754 35.5996C27.3824 36.0521 21.8149 34.4624 17.3041 31.1248L58.9396 -25.1467C49.8412 -31.8786 38.6114 -35.0852 27.3302 -34.1724L32.9754 35.5996ZM16.767 30.7193C14.1335 28.6913 11.9624 26.1255 10.3981 23.1928L72.1614 -9.75097C69.0459 -15.592 64.7217 -20.7021 59.4768 -24.7412L16.767 30.7193ZM10.3981 23.1928C8.83379 20.26 7.9123 17.0277 7.69495 13.711L77.5451 9.13345C77.1122 2.52773 75.2769 -3.90998 72.1614 -9.75097L10.3981 23.1928ZM7.69495 13.711C7.47759 10.3943 7.96936 7.06934 9.13752 3.95754L74.672 28.559C76.9986 22.3614 77.978 15.7392 77.5451 9.13345L7.69495 13.711ZM9.13752 3.95754C10.3057 0.845702 12.1234 -1.98149 14.4697 -4.3358L64.0522 45.0764C68.7251 40.3874 72.3454 34.7566 74.672 28.559L9.13752 3.95754ZM14.5004 -4.36664L-0.265193 10.413L49.2558 59.887L64.0215 45.1073L14.5004 -4.36664ZM-0.268913 10.4168C2.59885 7.54541 6.0061 5.26945 9.75682 3.71986L36.4857 68.4158C41.2645 66.4415 45.6057 63.5417 49.2596 59.8832L-0.268913 10.4168ZM9.75682 3.71986C13.5076 2.17024 17.5277 1.37766 21.5858 1.3876L21.4142 71.3874C26.5847 71.4001 31.7068 70.3902 36.4857 68.4158L9.75682 3.71986ZM11.9029 -31.575C0.577555 -31.5865 -10.308 -27.1914 -18.4505 -19.3196L30.2036 31.0071C25.2752 35.7717 18.6864 38.432 11.8315 38.425L11.9029 -31.575ZM-18.3901 -19.3779C-22.6079 -15.3198 -25.962 -10.4511 -28.2511 -5.06426L36.1734 22.3124C34.7736 25.6065 32.7225 28.5838 30.1432 31.0654L-18.3901 -19.3779ZM-28.2511 -5.06426C-30.5402 0.322579 -31.717 6.11648 -31.7109 11.9695L38.2891 11.8961C38.2928 15.4753 37.5732 19.0183 36.1734 22.3124L-28.2511 -5.06426ZM-31.7092 11.5879C-31.7672 17.4703 -30.6569 23.3058 -28.4428 28.7559L36.4098 2.40951C37.6825 5.54226 38.3207 8.89649 38.2874 12.2777L-31.7092 11.5879ZM-28.4428 28.7559C-26.2287 34.206 -22.9548 39.1625 -18.8108 43.3379L30.8733 -5.97226C33.2553 -3.57223 35.1372 -0.723249 36.4098 2.40951L-28.4428 28.7559ZM-18.7175 43.4315L-4.2331 57.9159L45.2644 8.41845L30.78 -6.06593L-18.7175 43.4315ZM-4.33436 57.8142C-0.949937 61.2265 3.07663 63.935 7.51309 65.7833L34.4334 1.16674C38.5272 2.87226 42.2427 5.37145 45.3656 8.52013L-4.33436 57.8142ZM7.51309 65.7833C11.9499 67.6317 16.7085 68.5831 21.5141 68.5831V-1.41685C25.9484 -1.41685 30.3393 -0.538943 34.4334 1.16674L7.51309 65.7833ZM21.5141 68.5831C26.3196 68.5831 31.0782 67.6318 35.5151 65.7833L8.59471 1.16674C12.6889 -0.53896 17.0798 -1.41685 21.5141 -1.41685V68.5831ZM35.5151 65.7833C39.9516 63.9349 43.9782 61.2264 47.3625 57.8142L-2.33749 8.52013C0.785393 5.37153 4.50087 2.87231 8.59471 1.16674L35.5151 65.7833ZM47.273 57.9041L62.0527 43.1104L12.5317 -6.36353L-2.24799 8.43022L47.273 57.9041ZM62.2984 42.862C66.6207 38.4483 69.9602 33.17 72.0975 27.374L6.42051 3.15558C7.69983 -0.313768 9.69876 -3.4732 12.286 -6.11513L62.2984 42.862ZM72.0975 27.374C74.2348 21.5779 75.1216 15.3952 74.6995 9.232L4.86306 14.0149C4.6104 10.3257 5.14119 6.62492 6.42051 3.15558L72.0975 27.374ZM74.7182 9.52403C74.3407 3.24131 72.6102 -2.88567 69.6451 -8.43755L7.89919 24.5388C6.11371 21.1956 5.07163 17.5061 4.84428 13.7228L74.7182 9.52403ZM69.6451 -8.43755C66.68 -13.9894 62.5504 -18.8351 57.5389 -22.643L15.1892 33.093C12.1714 30.8 9.68468 27.882 7.89919 24.5388L69.6451 -8.43755ZM57.1344 -22.9458C48.5507 -29.2745 37.9591 -32.2669 27.3327 -31.3656L33.2493 38.384C26.9539 38.918 20.679 37.1452 15.5937 33.3958L57.1344 -22.9458ZM27.3327 -31.3656C16.7064 -30.4642 6.77006 -25.7304 -0.624921 -18.0463L49.8124 30.4931C45.4314 35.0455 39.5448 37.8499 33.2493 38.384L27.3327 -31.3656ZM-0.480578 -18.1954L-2.57589 -16.0438L47.5728 32.7938L49.6681 30.6422L-0.480578 -18.1954ZM-2.35155 -16.2721C0.771395 -19.4207 4.48689 -21.9199 8.58065 -23.6254L35.501 40.9911C39.9375 39.1428 43.964 36.4343 47.3484 33.0221L-2.35155 -16.2721ZM8.58065 -23.6254C12.6743 -25.3309 17.0652 -26.209 21.5 -26.209V43.791C26.3061 43.791 31.0646 42.8394 35.501 40.9911L8.58065 -23.6254ZM21.5 -26.209C25.9349 -26.209 30.3258 -25.3309 34.4194 -23.6254L7.49902 40.9911C11.9354 42.8393 16.6939 43.791 21.5 43.791V-26.209ZM34.4194 -23.6254C38.513 -21.92 42.2285 -19.4208 45.3516 -16.2721L-4.34842 33.0221C-0.963934 36.4344 3.06266 39.1428 7.49902 40.9911L34.4194 -23.6254ZM45.2503 -16.3737L42.8597 -18.7644L-6.63779 30.7331L-4.24717 33.1237L45.2503 -16.3737ZM42.7515 -18.8721C34.5792 -26.9734 23.5488 -31.5359 12.0417 -31.5748L11.8052 38.4248C4.93506 38.4016 -1.65044 35.6776 -6.52956 30.8409L42.7515 -18.8721ZM11.9235 -31.575H11.8672V38.425H11.9235V-31.575Z" fill="#9E9E9E" mask="url(#path-1-inside-1_8_523)"/>
</svg>
