<svg width="35" height="39" viewBox="0 0 35 39" fill="none" xmlns="http://www.w3.org/2000/svg">
<path d="M17.5 0.75C10.0159 0.75 3.95751 6.90901 3.95751 14.4573V21.0271C2.10814 21.8422 0.625 23.3595 0.625 25.4949C0.625 28.3601 2.96508 30.75 5.83251 30.75H29.1675C32.0349 30.75 34.375 28.3601 34.375 25.4949C34.375 23.3595 32.8919 21.8422 31.0425 21.0271V14.4573C31.0425 6.90901 24.9841 0.75 17.5 0.75ZM27.2925 14.4573C27.2962 16.9474 27.2944 19.573 27.2775 22.0159C27.2231 23.0869 28.0764 23.9853 29.0348 23.9857C29.9931 23.9861 30.6247 24.6137 30.6247 25.4949C30.6247 26.376 29.9931 27 29.1672 27H5.83214C5.00626 27 4.37463 26.376 4.37463 25.4949C4.37463 24.6137 5.00626 23.9861 5.9638 23.9856C6.92134 23.9852 7.77398 23.0891 7.7218 22.0195C7.68317 19.5387 7.7068 16.9716 7.7068 14.4573C7.7068 8.89314 12.0567 4.5 17.4993 4.5C22.9418 4.5 27.2925 8.89314 27.2925 14.4573Z" fill="#9E9E9E"/>
<path d="M13.75 34.5C13.2527 34.5 12.7758 34.6976 12.4242 35.0492C12.0725 35.4008 11.875 35.8777 11.875 36.375C11.875 36.8723 12.0725 37.3492 12.4242 37.7008C12.7758 38.0524 13.2527 38.25 13.75 38.25H21.25C21.7473 38.25 22.2242 38.0524 22.5758 37.7008C22.9275 37.3492 23.125 36.8723 23.125 36.375C23.125 35.8777 22.9275 35.4008 22.5758 35.0492C22.2242 34.6976 21.7473 34.5 21.25 34.5H13.75Z" fill="#9E9E9E"/>
</svg>
