<svg width="40" height="40" viewBox="0 0 40 40" fill="none" xmlns="http://www.w3.org/2000/svg">
<g clip-path="url(#clip0_3_34)">
<path d="M12.5 35.9375C13.7081 35.9375 14.6875 34.9581 14.6875 33.75C14.6875 32.5419 13.7081 31.5625 12.5 31.5625C11.2919 31.5625 10.3125 32.5419 10.3125 33.75C10.3125 34.9581 11.2919 35.9375 12.5 35.9375Z" fill="#9E9E9E"/>
<path d="M28.75 35.9375C29.9581 35.9375 30.9375 34.9581 30.9375 33.75C30.9375 32.5419 29.9581 31.5625 28.75 31.5625C27.5419 31.5625 26.5625 32.5419 26.5625 33.75C26.5625 34.9581 27.5419 35.9375 28.75 35.9375Z" fill="#9E9E9E"/>
<path d="M6.60937 11.25H34.6406L30.5156 25.6875C30.3684 26.2115 30.0533 26.6726 29.6186 27.0001C29.1838 27.3275 28.6536 27.5032 28.1094 27.5H13.1406C12.5964 27.5032 12.0662 27.3275 11.6314 27.0001C11.1967 26.6726 10.8816 26.2115 10.7344 25.6875L5.07812 5.90625C5.00338 5.64493 4.84549 5.41509 4.62839 5.25156C4.41129 5.08803 4.1468 4.99971 3.875 5H1.25" stroke="#9E9E9E" stroke-width="3" stroke-linecap="round" stroke-linejoin="round"/>
</g>
<defs>
<clipPath id="clip0_3_34">
<rect width="40" height="40" fill="white"/>
</clipPath>
</defs>
</svg>
