<svg width="26" height="26" viewBox="0 0 26 26" fill="none" xmlns="http://www.w3.org/2000/svg">
<path d="M24.375 6.5C24.375 6.9158 24.2163 7.3318 23.8989 7.64867L10.8989 20.6487C10.5828 20.9676 10.1664 21.125 9.75 21.125C9.33359 21.125 8.9182 20.9663 8.60133 20.6489L2.10133 14.1489C1.78395 13.8328 1.625 13.4164 1.625 13C1.625 12.0717 2.38418 11.375 3.25 11.375C3.6658 11.375 4.0818 11.5337 4.39867 11.8511L9.75 17.2047L21.6023 5.35234C21.9172 5.03395 22.3336 4.875 22.75 4.875C23.6184 4.875 24.375 5.5707 24.375 6.5Z" fill="#D9D9D9"/>
</svg>
