<svg width="25" height="25" viewBox="0 0 25 25" fill="none" xmlns="http://www.w3.org/2000/svg">
<mask id="path-1-inside-1_5_100" fill="white">
<path d="M12.5 22.4375C12.191 22.4383 11.8849 22.3779 11.5993 22.2599C11.3137 22.1419 11.0543 21.9686 10.8359 21.75L2.78907 13.7031C2.1534 13.0606 1.65195 12.2979 1.31395 11.4596C0.975948 10.6213 0.808146 9.72412 0.82032 8.82033C0.826445 7.99208 0.995913 7.17317 1.31902 6.41052C1.64212 5.64787 2.11251 4.95645 2.70325 4.37587C3.29398 3.7953 3.99346 3.33697 4.7616 3.02715C5.52974 2.71732 6.35146 2.56208 7.1797 2.57033C8.02275 2.56183 8.85893 2.72273 9.63864 3.04347C10.4183 3.36421 11.1257 3.83826 11.7188 4.43751L12.5 5.21876L13.1406 4.57814C14.2468 3.44265 15.727 2.74651 17.3071 2.61867C18.8872 2.49082 20.46 2.93994 21.7344 3.88283C22.4598 4.44146 23.0579 5.14823 23.4887 5.95608C23.9196 6.76392 24.1735 7.6543 24.2334 8.56792C24.2932 9.48154 24.1578 10.3974 23.836 11.2546C23.5142 12.1118 23.0135 12.8906 22.3672 13.5391L14.1641 21.75C13.9457 21.9686 13.6863 22.1419 13.4007 22.2599C13.1151 22.3779 12.809 22.4383 12.5 22.4375ZM7.14845 4.12501C5.90666 4.12375 4.7131 4.60565 3.82032 5.46876C3.36516 5.90669 3.0032 6.43208 2.75618 7.0134C2.50915 7.59471 2.38216 8.21995 2.38282 8.85158C2.37597 9.54635 2.50711 10.2356 2.76862 10.8793C3.03013 11.523 3.41681 12.1084 3.90626 12.6016L11.9531 20.6485C12.0258 20.7217 12.1122 20.7798 12.2074 20.8195C12.3026 20.8591 12.4047 20.8795 12.5078 20.8795C12.611 20.8795 12.7131 20.8591 12.8083 20.8195C12.9035 20.7798 12.9899 20.7217 13.0625 20.6485L21.2734 12.4297C21.7554 11.9375 22.1278 11.349 22.3661 10.7027C22.6044 10.0564 22.7033 9.36694 22.6563 8.6797C22.6145 7.98542 22.4233 7.30834 22.0956 6.69482C21.768 6.0813 21.3116 5.54581 20.7578 5.12501C19.786 4.40852 18.5869 4.06975 17.3839 4.17179C16.1809 4.27384 15.056 4.80976 14.2188 5.6797L13.0547 6.87501C12.9821 6.94824 12.8957 7.00636 12.8005 7.04602C12.7053 7.08569 12.6031 7.10611 12.5 7.10611C12.3969 7.10611 12.2948 7.08569 12.1996 7.04602C12.1044 7.00636 12.0179 6.94824 11.9453 6.87501L10.6172 5.54689C9.70243 4.64007 8.46775 4.12937 7.1797 4.12501H7.14845Z"/>
</mask>
<path d="M12.5 22.4375C12.191 22.4383 11.8849 22.3779 11.5993 22.2599C11.3137 22.1419 11.0543 21.9686 10.8359 21.75L2.78907 13.7031C2.1534 13.0606 1.65195 12.2979 1.31395 11.4596C0.975948 10.6213 0.808146 9.72412 0.82032 8.82033C0.826445 7.99208 0.995913 7.17317 1.31902 6.41052C1.64212 5.64787 2.11251 4.95645 2.70325 4.37587C3.29398 3.7953 3.99346 3.33697 4.7616 3.02715C5.52974 2.71732 6.35146 2.56208 7.1797 2.57033C8.02275 2.56183 8.85893 2.72273 9.63864 3.04347C10.4183 3.36421 11.1257 3.83826 11.7188 4.43751L12.5 5.21876L13.1406 4.57814C14.2468 3.44265 15.727 2.74651 17.3071 2.61867C18.8872 2.49082 20.46 2.93994 21.7344 3.88283C22.4598 4.44146 23.0579 5.14823 23.4887 5.95608C23.9196 6.76392 24.1735 7.6543 24.2334 8.56792C24.2932 9.48154 24.1578 10.3974 23.836 11.2546C23.5142 12.1118 23.0135 12.8906 22.3672 13.5391L14.1641 21.75C13.9457 21.9686 13.6863 22.1419 13.4007 22.2599C13.1151 22.3779 12.809 22.4383 12.5 22.4375ZM7.14845 4.12501C5.90666 4.12375 4.7131 4.60565 3.82032 5.46876C3.36516 5.90669 3.0032 6.43208 2.75618 7.0134C2.50915 7.59471 2.38216 8.21995 2.38282 8.85158C2.37597 9.54635 2.50711 10.2356 2.76862 10.8793C3.03013 11.523 3.41681 12.1084 3.90626 12.6016L11.9531 20.6485C12.0258 20.7217 12.1122 20.7798 12.2074 20.8195C12.3026 20.8591 12.4047 20.8795 12.5078 20.8795C12.611 20.8795 12.7131 20.8591 12.8083 20.8195C12.9035 20.7798 12.9899 20.7217 13.0625 20.6485L21.2734 12.4297C21.7554 11.9375 22.1278 11.349 22.3661 10.7027C22.6044 10.0564 22.7033 9.36694 22.6563 8.6797C22.6145 7.98542 22.4233 7.30834 22.0956 6.69482C21.768 6.0813 21.3116 5.54581 20.7578 5.12501C19.786 4.40852 18.5869 4.06975 17.3839 4.17179C16.1809 4.27384 15.056 4.80976 14.2188 5.6797L13.0547 6.87501C12.9821 6.94824 12.8957 7.00636 12.8005 7.04602C12.7053 7.08569 12.6031 7.10611 12.5 7.10611C12.3969 7.10611 12.2948 7.08569 12.1996 7.04602C12.1044 7.00636 12.0179 6.94824 11.9453 6.87501L10.6172 5.54689C9.70243 4.64007 8.46775 4.12937 7.1797 4.12501H7.14845Z" fill="#9E9E9E"/>
<path d="M12.5 22.4375L12.5858 -12.5624L12.5 -12.5626L12.4142 -12.5624L12.5 22.4375ZM10.8359 21.75L35.6002 -2.98321L35.5924 -2.99097L35.5847 -2.99872L10.8359 21.75ZM2.78907 13.7031L-22.0931 38.3177L-22.0266 38.385L-21.9597 38.4519L2.78907 13.7031ZM0.82032 8.82033L35.8171 9.29173L35.8186 9.18544L35.8194 9.07914L0.82032 8.82033ZM7.1797 2.57033L6.83134 37.5686L7.18179 37.5721L7.53223 37.5686L7.1797 2.57033ZM11.7188 4.43751L-13.1582 29.0573L-13.0943 29.122L-13.03 29.1863L11.7188 4.43751ZM12.5 5.21876L-12.2487 29.9675L12.5 54.7162L37.2487 29.9675L12.5 5.21876ZM13.1406 4.57814L37.8894 29.3269L38.0512 29.1651L38.2109 29.0012L13.1406 4.57814ZM21.7344 3.88283L43.0893 -23.8474L42.8227 -24.0528L42.5521 -24.2529L21.7344 3.88283ZM22.3672 13.5391L47.1277 38.276L47.1431 38.2606L47.1585 38.2452L22.3672 13.5391ZM14.1641 21.75L-10.5964 -2.98694L-10.6002 -2.98321L14.1641 21.75ZM7.14845 4.12501L7.11273 39.125L7.13059 39.125H7.14845V4.12501ZM3.82032 5.46876L28.087 30.6904L28.1172 30.6613L28.1473 30.6321L3.82032 5.46876ZM2.38282 8.85158L37.3811 9.19651L37.383 9.00569L37.3828 8.81486L2.38282 8.85158ZM3.90626 12.6016L-20.9358 37.2566L-20.8892 37.3036L-20.8425 37.3503L3.90626 12.6016ZM11.9531 20.6485L36.8031 -3.99861L36.7526 -4.04955L36.7019 -4.10028L11.9531 20.6485ZM13.0625 20.6485L-11.698 -4.08851L-11.7428 -4.04364L-11.7875 -3.99861L13.0625 20.6485ZM21.2734 12.4297L46.034 37.1667L46.1574 37.0431L46.2797 36.9183L21.2734 12.4297ZM22.6563 8.6797L-12.2807 10.7791L-12.2719 10.9252L-12.2619 11.0711L22.6563 8.6797ZM20.7578 5.12501L41.9327 -22.743L41.7315 -22.8958L41.5281 -23.0458L20.7578 5.12501ZM14.2188 5.6797L39.2931 30.0985L39.3655 30.0242L39.4374 29.9494L14.2188 5.6797ZM13.0547 6.87501L37.9047 31.5221L38.0174 31.4085L38.129 31.2938L13.0547 6.87501ZM12.5 7.10611V-27.8939V7.10611ZM11.9453 6.87501L36.7953 -17.772L36.7448 -17.823L36.6941 -17.8737L11.9453 6.87501ZM10.6172 5.54689L35.3659 -19.2018L35.3119 -19.2558L35.2577 -19.3096L10.6172 5.54689ZM7.1797 4.12501L7.29792 -30.8748L7.23881 -30.875H7.1797V4.12501ZM12.4142 -12.5624C16.7195 -12.5729 20.9845 -11.7321 24.9638 -10.0881L-1.7651 54.6079C2.78533 56.4879 7.6625 57.4495 12.5858 57.4374L12.4142 -12.5624ZM24.9638 -10.0881C28.9429 -8.4441 32.5577 -6.02953 35.6002 -2.98321L-13.9283 46.4832C-10.4491 49.9668 -6.31538 52.728 -1.7651 54.6079L24.9638 -10.0881ZM35.5847 -2.99872L27.5378 -11.0456L-21.9597 38.4519L-13.9128 46.4988L35.5847 -2.99872ZM27.6712 -10.9115C30.3014 -8.2527 32.3762 -5.09712 33.7747 -1.62857L-31.1468 24.5478C-29.0723 29.6929 -25.9946 34.3738 -22.0931 38.3177L27.6712 -10.9115ZM33.7747 -1.62857C35.1732 1.83999 35.8675 5.55218 35.8171 9.29173L-34.1765 8.34892C-34.2512 13.8961 -33.2213 19.4026 -31.1468 24.5478L33.7747 -1.62857ZM35.8194 9.07914C35.7914 12.8546 35.019 16.5874 33.5461 20.0638L-30.9081 -7.24276C-33.0271 -2.24104 -34.1386 3.12959 -34.1787 8.56151L35.8194 9.07914ZM33.5461 20.0638C32.0733 23.5402 29.9291 26.6919 27.2364 29.3383L-21.8299 -20.5866C-25.7041 -16.779 -28.7891 -12.2445 -30.9081 -7.24276L33.5461 20.0638ZM27.2364 29.3383C24.5436 31.9848 21.3552 34.074 17.8538 35.4863L-8.33059 -29.432C-13.3683 -27.4 -17.9557 -24.3942 -21.8299 -20.5866L27.2364 29.3383ZM17.8538 35.4863C14.3523 36.8986 10.6067 37.6062 6.83134 37.5686L7.52805 -32.4279C2.09624 -32.482 -3.29286 -31.4639 -8.33059 -29.432L17.8538 35.4863ZM7.53223 37.5686C3.68932 37.6073 -0.122245 36.8739 -3.6764 35.4118L22.9537 -29.3249C17.8401 -31.4284 12.3562 -32.4836 6.82716 -32.4279L7.53223 37.5686ZM-3.6764 35.4118C-7.23055 33.9498 -10.4549 31.7889 -13.1582 29.0573L36.5958 -20.1823C32.7063 -24.1124 28.0672 -27.2214 22.9537 -29.3249L-3.6764 35.4118ZM-13.03 29.1863L-12.2487 29.9675L37.2487 -19.53L36.4675 -20.3112L-13.03 29.1863ZM37.2487 29.9675L37.8894 29.3269L-11.6081 -20.1706L-12.2487 -19.53L37.2487 29.9675ZM38.2109 29.0012C33.4104 33.9288 26.9867 36.9499 20.1297 37.5047L14.4845 -32.2673C4.46731 -31.4569 -4.91675 -27.0436 -11.9296 -19.8449L38.2109 29.0012ZM20.1297 37.5047C13.2727 38.0595 6.44689 36.1104 0.916643 32.0186L42.5521 -24.2529C34.4732 -30.2306 24.5017 -33.0778 14.4845 -32.2673L20.1297 37.5047ZM0.379454 31.6131C-2.83431 29.1382 -5.48392 26.007 -7.39291 22.428L54.3704 -10.5158C51.5996 -15.7105 47.7539 -20.2553 43.0893 -23.8474L0.379454 31.6131ZM-7.39291 22.428C-9.30192 18.8489 -10.4265 14.9043 -10.6917 10.8567L59.1584 6.27914C58.7734 0.404316 57.1412 -5.32109 54.3704 -10.5158L-7.39291 22.428ZM-10.6917 10.8567C-10.957 6.8091 -10.3568 2.75142 -8.93126 -1.04611L56.6032 23.5553C58.6724 18.0434 59.5434 12.154 59.1584 6.27914L-10.6917 10.8567ZM-8.93126 -1.04611C-7.50567 -4.84369 -5.28736 -8.2939 -2.4241 -11.167L47.1585 38.2452C51.3143 34.075 54.5341 29.0672 56.6032 23.5553L-8.93126 -1.04611ZM-2.39332 -11.1979L-10.5964 -2.98694L38.9246 46.487L47.1277 38.276L-2.39332 -11.1979ZM-10.6002 -2.98321C-7.55772 -6.02948 -3.94292 -8.44407 0.036265 -10.0881L26.7651 54.6079C31.3155 52.728 35.4491 49.9668 38.9283 46.4832L-10.6002 -2.98321ZM0.036265 -10.0881C4.01553 -11.7321 8.28051 -12.5729 12.5858 -12.5624L12.4142 57.4374C17.3375 57.4495 22.2147 56.4879 26.7651 54.6079L0.036265 -10.0881ZM7.18416 -30.875C-3.14778 -30.8855 -13.0785 -26.8759 -20.5067 -19.6946L28.1473 30.6321C22.5047 36.0872 14.9611 39.133 7.11273 39.125L7.18416 -30.875ZM-20.4463 -19.7528C-24.3 -16.0451 -27.3646 -11.5967 -29.4561 -6.67495L34.9684 20.7017C33.371 24.4609 31.0303 27.8585 28.087 30.6904L-20.4463 -19.7528ZM-29.4561 -6.67495C-31.5476 -1.75316 -32.6228 3.54055 -32.6172 8.8883L37.3828 8.81486C37.3871 12.8994 36.5659 16.9426 34.9684 20.7017L-29.4561 -6.67495ZM-32.6155 8.50665C-32.668 13.8333 -31.6626 19.1173 -29.6577 24.0525L35.1949 -2.2939C36.6768 1.35383 37.4199 5.25944 37.3811 9.19651L-32.6155 8.50665ZM-29.6577 24.0525C-27.6528 28.9877 -24.6882 33.4758 -20.9358 37.2566L28.7483 -12.0535C31.5218 -9.25893 33.7131 -5.94163 35.1949 -2.2939L-29.6577 24.0525ZM-20.8425 37.3503L-12.7956 45.3972L36.7019 -4.10028L28.655 -12.1472L-20.8425 37.3503ZM-12.8969 45.2955C-9.57054 48.6492 -5.6131 51.3111 -1.25281 53.1277L25.6675 -11.4888C29.8374 -9.75155 33.6221 -7.20587 36.8031 -3.99861L-12.8969 45.2955ZM-1.25281 53.1277C3.10789 54.9445 7.78473 55.8795 12.5078 55.8795V-14.1205C17.0246 -14.1205 21.4973 -13.2262 25.6675 -11.4888L-1.25281 53.1277ZM12.5078 55.8795C17.2309 55.8795 21.9077 54.9445 26.2685 53.1277L-0.651909 -11.4888C3.51842 -13.2262 7.99104 -14.1205 12.5078 -14.1205V55.8795ZM26.2685 53.1277C30.6289 51.3111 34.5863 48.6491 37.9125 45.2955L-11.7875 -3.99861C-8.60651 -7.20578 -4.82191 -9.7515 -0.651909 -11.4888L26.2685 53.1277ZM37.823 45.3854L46.034 37.1667L-3.48706 -12.3073L-11.698 -4.08851L37.823 45.3854ZM46.2797 36.9183C50.2164 32.8983 53.258 28.0909 55.2046 22.8119L-10.4724 -1.40653C-9.0024 -5.39292 -6.70557 -9.02321 -3.73276 -12.0589L46.2797 36.9183ZM55.2046 22.8119C57.1513 17.5329 57.9589 11.9017 57.5745 6.28826L-12.2619 11.0711C-12.5523 6.8322 -11.9424 2.57986 -10.4724 -1.40653L55.2046 22.8119ZM57.5932 6.5803C57.2491 0.853007 55.6715 -4.73231 52.9686 -9.79338L-8.77732 23.183C-10.8249 19.349 -12.02 15.1178 -12.2807 10.7791L57.5932 6.5803ZM52.9686 -9.79338C50.2657 -14.8544 46.5011 -19.2718 41.9327 -22.743L-0.417023 32.993C-3.87787 30.3634 -6.7297 27.017 -8.77732 23.183L52.9686 -9.79338ZM41.5281 -23.0458C33.7219 -28.8013 24.0895 -31.5227 14.4256 -30.703L20.3422 39.0465C13.0844 39.6622 5.85018 37.6184 -0.0125082 33.2958L41.5281 -23.0458ZM14.4256 -30.703C4.76166 -29.8832 -4.27471 -25.5782 -10.9999 -18.59L39.4374 29.9494C34.3866 35.1977 27.6001 38.4309 20.3422 39.0465L14.4256 -30.703ZM-10.8556 -18.7391L-12.0196 -17.5438L38.129 31.2938L39.2931 30.0985L-10.8556 -18.7391ZM-11.7953 -17.772C-8.61426 -20.9793 -4.82963 -23.525 -0.659721 -25.2622L26.2606 39.3543C30.621 37.5377 34.5784 34.8758 37.9047 31.5221L-11.7953 -17.772ZM-0.659721 -25.2622C3.51011 -26.9995 7.98269 -27.8939 12.5 -27.8939V42.1061C17.2236 42.1061 21.9004 41.1708 26.2606 39.3543L-0.659721 -25.2622ZM12.5 -27.8939C17.0174 -27.8939 21.4899 -26.9994 25.6597 -25.2622L-1.26062 39.3543C3.09958 41.1708 7.77637 42.1061 12.5 42.1061V-27.8939ZM25.6597 -25.2622C29.8295 -23.525 33.6142 -20.9794 36.7953 -17.772L-12.9047 31.5221C-9.57829 34.8759 -5.62083 37.5377 -1.26062 39.3543L25.6597 -25.2622ZM36.6941 -17.8737L35.3659 -19.2018L-14.1315 30.2956L-12.8034 31.6237L36.6941 -17.8737ZM35.2577 -19.3096C27.8172 -26.6854 17.7746 -30.8394 7.29792 -30.8748L7.06147 39.1248C-0.839145 39.0981 -8.41238 35.9656 -14.0233 30.4034L35.2577 -19.3096ZM7.1797 -30.875H7.14845V39.125H7.1797V-30.875Z" fill="#9E9E9E" mask="url(#path-1-inside-1_5_100)"/>
</svg>
