<svg width="104" height="104" viewBox="0 0 104 104" fill="none" xmlns="http://www.w3.org/2000/svg">
<path d="M19.1245 26.0417H29.1747L32.2638 17.324C33.2242 14.4426 35.9109 13.0625 38.948 13.0625H65.0535C68.0906 13.0625 70.7773 14.4426 71.7377 17.324L74.8268 26.0417H84.877C91.3493 26.0417 95.2646 31.4367 95.2646 37.909V80.1778C95.2646 86.65 91.3493 90.9375 84.877 90.9375H19.1289C12.6523 90.9375 8.73687 86.65 8.73687 80.1778V37.909C8.73687 31.4367 12.6523 26.0417 19.1245 26.0417ZM13.0633 80.1778C13.0633 84.0629 15.2394 86.6111 19.1245 86.6111H84.877C88.7621 86.6111 90.9383 84.0629 90.9383 80.1778V37.909C90.9383 34.0282 88.7621 30.3681 84.877 30.3681H73.1352C72.1228 30.3681 71.2272 29.97 70.9071 29.0139L67.2816 18.5657C66.9614 17.6052 66.0659 17.3889 65.0535 17.3889H38.948C37.9357 17.3889 37.0401 17.7263 36.72 18.6911L33.0944 29.1653C32.7743 30.1215 31.8787 30.3681 30.8663 30.3681H19.1245C15.2394 30.3681 13.0633 34.0282 13.0633 37.909V80.1778Z" fill="#F54B64" fill-opacity="0.5"/>
<path d="M52.0007 33.2148C64.9496 33.2148 75.4844 43.7496 75.4844 56.6985C75.4844 69.6473 64.9496 80.1778 52.0007 80.1778C39.0518 80.1778 28.5171 69.643 28.5171 56.6941C28.5171 43.7452 39.0518 33.2148 52.0007 33.2148ZM52.0007 75.4836C62.3581 75.4836 70.7859 67.0558 70.7859 56.6985C70.7859 46.3411 62.3581 37.9089 52.0007 37.9089C41.6434 37.9089 33.2156 46.3368 33.2156 56.6941C33.2156 67.0515 41.6434 75.4836 52.0007 75.4836Z" fill="#F54B64" fill-opacity="0.5"/>
</svg>
