<svg width="35" height="21" viewBox="0 0 35 21" fill="none" xmlns="http://www.w3.org/2000/svg">
<path d="M34.4531 10.3359C34.4531 16.0234 29.8594 20.6719 24.1172 20.6719C18.4297 20.6719 13.7812 16.0234 13.7812 10.3359C13.7812 4.64844 18.375 0 24.0625 0C29.8594 0 34.4531 4.64844 34.4531 10.3359Z" fill="#FFB600"/>
<path d="M24.1172 0C29.8047 0 34.4531 4.64844 34.4531 10.3359C34.4531 16.0234 29.8594 20.6719 24.1172 20.6719C18.4297 20.6719 13.7812 16.0234 13.7812 10.3359" fill="#F7981D"/>
<path d="M24.1172 0C29.8047 0 34.4531 4.64844 34.4531 10.3359C34.4531 16.0234 29.8594 20.6719 24.1172 20.6719" fill="#FF8500"/>
<path d="M10.2266 0C4.59375 0.0546875 0 4.64844 0 10.3359C0 16.0234 4.59375 20.6719 10.3359 20.6719C13.0156 20.6719 15.4219 19.6328 17.2812 17.9922C17.6641 17.6641 17.9922 17.2812 18.3203 16.8984H16.1875C15.9141 16.5703 15.6406 16.1875 15.4219 15.8594H19.0859C19.3047 15.5312 19.5234 15.1484 19.6875 14.7656H14.8203C14.6563 14.4375 14.4922 14.0547 14.3828 13.6719H20.0703C20.3984 12.6328 20.6172 11.5391 20.6172 10.3906C20.6172 9.625 20.5078 8.91406 20.3984 8.20312H14.0547C14.1094 7.82031 14.2188 7.49219 14.3281 7.10938H20.0156C19.9062 6.72656 19.7422 6.34375 19.5781 6.01562H14.7656C14.9297 5.63281 15.1484 5.30469 15.3672 4.92188H19.0312C18.8125 4.53906 18.5391 4.15625 18.2109 3.82812H16.1875C16.5156 3.44531 16.8438 3.11719 17.2266 2.78906C15.4219 1.09375 12.9609 0.109375 10.2812 0.109375C10.2812 -1.05938e-07 10.2813 0 10.2266 0Z" fill="#FF5050"/>
<path d="M0 10.3359C0 16.0234 4.59375 20.6719 10.3359 20.6719C13.0156 20.6719 15.4219 19.6328 17.2812 17.9922C17.6641 17.6641 17.9922 17.2813 18.3203 16.8984H16.1875C15.9141 16.5703 15.6406 16.1875 15.4219 15.8594H19.0859C19.3047 15.5312 19.5234 15.1484 19.6875 14.7656H14.8203C14.6563 14.4375 14.4922 14.0547 14.3828 13.6719H20.0703C20.3984 12.6328 20.6172 11.5391 20.6172 10.3906C20.6172 9.625 20.5078 8.91406 20.3984 8.20313H14.0547C14.1094 7.82031 14.2188 7.49219 14.3281 7.10938H20.0156C19.9062 6.72656 19.7422 6.34375 19.5781 6.01563H14.7656C14.9297 5.63281 15.1484 5.30469 15.3672 4.92188H19.0312C18.8125 4.53906 18.5391 4.15625 18.2109 3.82813H16.1875C16.5156 3.44531 16.8438 3.11719 17.2266 2.78906C15.4219 1.09375 12.9609 0.109375 10.2812 0.109375H10.2266" fill="#E52836"/>
<path d="M10.3359 20.6719C13.0156 20.6719 15.4219 19.6328 17.2812 17.9922C17.6641 17.6641 17.9922 17.2813 18.3203 16.8984H16.1875C15.9141 16.5703 15.6406 16.1875 15.4219 15.8594H19.0859C19.3047 15.5312 19.5234 15.1484 19.6875 14.7656H14.8203C14.6562 14.4375 14.4922 14.0547 14.3828 13.6719H20.0703C20.3984 12.6328 20.6172 11.5391 20.6172 10.3906C20.6172 9.625 20.5078 8.91406 20.3984 8.20313H14.0547C14.1094 7.82031 14.2187 7.49219 14.3281 7.10938H20.0156C19.9062 6.72656 19.7422 6.34375 19.5781 6.01563H14.7656C14.9297 5.63281 15.1484 5.30469 15.3672 4.92188H19.0312C18.8125 4.53906 18.5391 4.15625 18.2109 3.82813H16.1875C16.5156 3.44531 16.8437 3.11719 17.2266 2.78906C15.4219 1.09375 12.9609 0.109375 10.2812 0.109375H10.2266" fill="#CB2026"/>
<path d="M14 12.9609L14.1641 12.0312C14.1094 12.0312 14 12.0859 13.8906 12.0859C13.5078 12.0859 13.4531 11.8672 13.5078 11.7578L13.8359 9.84375H14.4375L14.6016 8.80469H14.0547L14.1641 8.14844H13.0703C13.0703 8.14844 12.4141 11.7578 12.4141 12.1953C12.4141 12.8516 12.7969 13.125 13.2891 13.125C13.6172 13.125 13.8906 13.0156 14 12.9609Z" fill="white"/>
<path d="M14.3828 11.211C14.3828 12.7422 15.4219 13.125 16.2969 13.125C17.1172 13.125 17.4453 12.961 17.4453 12.961L17.6641 11.9219C17.6641 11.9219 17.0625 12.1953 16.5156 12.1953C15.3125 12.1953 15.5313 11.3203 15.5313 11.3203H17.7734C17.7734 11.3203 17.9375 10.6094 17.9375 10.336C17.9375 9.62502 17.5547 8.75002 16.3516 8.75002C15.2031 8.64065 14.3828 9.84377 14.3828 11.211ZM16.2969 9.62502C16.8984 9.62502 16.7891 10.336 16.7891 10.3906H15.5859C15.5859 10.336 15.6953 9.62502 16.2969 9.62502Z" fill="white"/>
<path d="M23.2422 12.9609L23.4609 11.7578C23.4609 11.7578 22.9141 12.0312 22.5313 12.0312C21.7656 12.0312 21.4375 11.4297 21.4375 10.7734C21.4375 9.46094 22.0937 8.75 22.8594 8.75C23.4062 8.75 23.8437 9.07813 23.8437 9.07813L24.0078 7.92969C24.0078 7.92969 23.3516 7.65625 22.75 7.65625C21.4922 7.65625 20.2344 8.75 20.2344 10.8281C20.2344 12.1953 20.8906 13.125 22.2031 13.125C22.6406 13.125 23.2422 12.9609 23.2422 12.9609Z" fill="white"/>
<path d="M7.98438 8.64062C7.21875 8.64062 6.67187 8.85937 6.67187 8.85937L6.50781 9.78906C6.50781 9.78906 7 9.57031 7.71094 9.57031C8.09375 9.57031 8.42187 9.625 8.42187 9.95312C8.42187 10.1719 8.36719 10.2266 8.36719 10.2266C8.36719 10.2266 8.03906 10.2266 7.875 10.2266C6.94531 10.2266 5.90625 10.6094 5.90625 11.8672C5.90625 12.8516 6.5625 13.0703 6.94531 13.0703C7.71094 13.0703 8.03906 12.5781 8.09375 12.5781L8.03906 13.0156H9.02344L9.46094 10.0078C9.46094 8.69531 8.36719 8.64062 7.98438 8.64062ZM8.20312 11.1016C8.20312 11.2656 8.09375 12.1406 7.4375 12.1406C7.10938 12.1406 7 11.8672 7 11.7031C7 11.4297 7.16406 11.0469 7.98438 11.0469C8.14844 11.1016 8.20312 11.1016 8.20312 11.1016Z" fill="white"/>
<path d="M10.5 13.0703C10.7734 13.0703 12.1406 13.125 12.1406 11.6484C12.1406 10.2813 10.8281 10.5547 10.8281 10.0078C10.8281 9.73438 11.0469 9.625 11.4297 9.625C11.5938 9.625 12.1953 9.67969 12.1953 9.67969L12.3594 8.69531C12.3594 8.69531 11.9766 8.58594 11.3203 8.58594C10.5 8.58594 9.67969 8.91406 9.67969 10.0078C9.67969 11.2656 11.0469 11.1563 11.0469 11.6484C11.0469 11.9766 10.6641 12.0312 10.3906 12.0312C9.89844 12.0312 9.40625 11.8672 9.40625 11.8672L9.24219 12.8516C9.29688 12.9609 9.57031 13.0703 10.5 13.0703Z" fill="white"/>
<path d="M32.3203 7.76562L32.1016 9.24219C32.1016 9.24219 31.6641 8.69531 31.0625 8.69531C30.0781 8.69531 29.2031 9.89844 29.2031 11.3203C29.2031 12.1953 29.6406 13.125 30.5703 13.125C31.2266 13.125 31.6094 12.6875 31.6094 12.6875L31.5547 13.0703H32.6484L33.4687 7.82031L32.3203 7.76562ZM31.8281 10.6641C31.8281 11.2656 31.5547 12.0312 30.9531 12.0312C30.5703 12.0312 30.3516 11.7031 30.3516 11.1563C30.3516 10.2813 30.7344 9.73438 31.2266 9.73438C31.6094 9.73438 31.8281 10.0078 31.8281 10.6641Z" fill="white"/>
<path d="M2.02344 13.0156L2.67969 9.07813L2.78906 13.0156H3.55469L4.97656 9.07813L4.375 13.0156H5.52344L6.39844 7.76562H4.59375L3.5 10.9922L3.44531 7.76562H1.85938L0.984375 13.0156H2.02344Z" fill="white"/>
<path d="M18.9766 13.0156C19.3047 11.2109 19.3594 9.73437 20.125 10.0078C20.2344 9.29687 20.3984 9.02344 20.5078 8.75C20.5078 8.75 20.4531 8.75 20.2891 8.75C19.7969 8.75 19.4141 9.40625 19.4141 9.40625L19.5234 8.80469H18.4844L17.7734 13.0703H18.9766V13.0156Z" fill="white"/>
<path d="M25.7578 8.64062C24.9922 8.64062 24.4453 8.85937 24.4453 8.85937L24.2813 9.78906C24.2813 9.78906 24.7734 9.57031 25.4844 9.57031C25.8672 9.57031 26.1953 9.625 26.1953 9.95312C26.1953 10.1719 26.1406 10.2266 26.1406 10.2266C26.1406 10.2266 25.8125 10.2266 25.6484 10.2266C24.7188 10.2266 23.6797 10.6094 23.6797 11.8672C23.6797 12.8516 24.3359 13.0703 24.7188 13.0703C25.4844 13.0703 25.8125 12.5781 25.8672 12.5781L25.8125 13.0156H26.7969L27.2344 10.0078C27.2891 8.69531 26.1406 8.64062 25.7578 8.64062ZM26.0312 11.1016C26.0312 11.2656 25.9219 12.1406 25.2656 12.1406C24.9375 12.1406 24.8281 11.8672 24.8281 11.7031C24.8281 11.4297 24.9922 11.0469 25.8125 11.0469C25.9766 11.1016 25.9766 11.1016 26.0312 11.1016Z" fill="white"/>
<path d="M28.1641 13.0156C28.4922 11.2109 28.5469 9.73437 29.3125 10.0078C29.4219 9.29687 29.5859 9.02344 29.6953 8.75C29.6953 8.75 29.6406 8.75 29.4766 8.75C28.9844 8.75 28.6016 9.40625 28.6016 9.40625L28.7109 8.80469H27.6719L26.9609 13.0703H28.1641V13.0156Z" fill="white"/>
<path d="M12.3047 12.1953C12.3047 12.8516 12.6875 13.125 13.1797 13.125C13.5625 13.125 13.8906 13.0156 14 12.9609L14.1641 12.0312C14.1094 12.0312 14 12.0859 13.8906 12.0859C13.5078 12.0859 13.4531 11.8672 13.5078 11.7578L13.8359 9.84375H14.4375L14.6016 8.80469H14.0547L14.1641 8.14844" fill="#9E9E9E"/>
<path d="M14.9297 11.211C14.9297 12.7422 15.4219 13.125 16.2969 13.125C17.1172 13.125 17.4453 12.961 17.4453 12.961L17.6641 11.9219C17.6641 11.9219 17.0625 12.1953 16.5156 12.1953C15.3125 12.1953 15.5313 11.3203 15.5313 11.3203H17.7734C17.7734 11.3203 17.9375 10.6094 17.9375 10.336C17.9375 9.62502 17.5547 8.75002 16.3516 8.75002C15.2031 8.64065 14.9297 9.84377 14.9297 11.211ZM16.2969 9.62502C16.8984 9.62502 17.0078 10.336 17.0078 10.3906H15.5859C15.5859 10.336 15.6953 9.62502 16.2969 9.62502Z" fill="#9E9E9E"/>
<path d="M23.2422 12.9609L23.4609 11.7578C23.4609 11.7578 22.9141 12.0312 22.5313 12.0312C21.7656 12.0312 21.4375 11.4297 21.4375 10.7734C21.4375 9.46094 22.0937 8.75 22.8594 8.75C23.4062 8.75 23.8437 9.07813 23.8437 9.07813L24.0078 7.92969C24.0078 7.92969 23.3516 7.65625 22.75 7.65625C21.4922 7.65625 20.7812 8.75 20.7812 10.8281C20.7812 12.1953 20.8906 13.125 22.2031 13.125C22.6406 13.125 23.2422 12.9609 23.2422 12.9609Z" fill="#9E9E9E"/>
<path d="M6.50781 9.84375C6.50781 9.84375 7 9.625 7.71094 9.625C8.09375 9.625 8.42187 9.67969 8.42187 10.0078C8.42187 10.2266 8.36719 10.2812 8.36719 10.2812C8.36719 10.2812 8.03906 10.2812 7.875 10.2812C6.94531 10.2812 5.90625 10.6641 5.90625 11.9219C5.90625 12.9063 6.5625 13.125 6.94531 13.125C7.71094 13.125 8.03906 12.6328 8.09375 12.6328L8.03906 13.0703H9.02344L9.46094 10.0625C9.46094 8.80469 8.36719 8.75 7.92969 8.75M8.75 11.1016C8.75 11.2656 8.09375 12.1406 7.4375 12.1406C7.10938 12.1406 7 11.8672 7 11.7031C7 11.4297 7.16406 11.0469 7.98438 11.0469C8.14844 11.1016 8.75 11.1016 8.75 11.1016Z" fill="#9E9E9E"/>
<path d="M9.29688 12.9609C9.29688 12.9609 9.625 13.0703 10.5547 13.0703C10.8281 13.0703 12.1953 13.125 12.1953 11.6484C12.1953 10.2813 10.8828 10.5547 10.8828 10.0078C10.8828 9.73438 11.1016 9.625 11.4844 9.625C11.6484 9.625 12.25 9.67969 12.25 9.67969L12.4141 8.69531C12.4141 8.69531 12.0312 8.58594 11.375 8.58594C10.5547 8.58594 10.2812 8.91406 10.2812 10.0078C10.2812 11.2656 11.1016 11.1563 11.1016 11.6484C11.1016 11.9766 10.7188 12.0312 10.4453 12.0312" fill="#9E9E9E"/>
<path d="M32.1016 9.24219C32.1016 9.24219 31.6641 8.69531 31.0626 8.69531C30.0782 8.69531 29.7501 9.89844 29.7501 11.3203C29.7501 12.1953 29.6407 13.125 30.5704 13.125C31.2266 13.125 31.6094 12.6875 31.6094 12.6875L31.5547 13.0703H32.6485L33.4688 7.82031M32.0469 10.6641C32.0469 11.2656 31.5547 12.0312 30.9532 12.0312C30.5704 12.0312 30.3516 11.7031 30.3516 11.1563C30.3516 10.2813 30.7344 9.73438 31.2266 9.73438C31.6094 9.73438 32.0469 10.0078 32.0469 10.6641Z" fill="#9E9E9E"/>
<path d="M2.02344 13.0156L2.67969 9.07813L2.78906 13.0156H3.55469L4.97656 9.07813L4.375 13.0156H5.52344L6.39844 7.76562H5.03125L3.5 10.9922L3.44531 7.76562H2.84375L0.984375 13.0156H2.02344Z" fill="#9E9E9E"/>
<path d="M17.8281 13.0156H18.9766C19.3047 11.2109 19.3594 9.73437 20.125 10.0078C20.2344 9.29687 20.3984 9.02344 20.5078 8.75C20.5078 8.75 20.4531 8.75 20.2891 8.75C19.7969 8.75 19.4141 9.40625 19.4141 9.40625L19.5234 8.80469" fill="#9E9E9E"/>
<path d="M24.2813 9.84375C24.2813 9.84375 24.7734 9.625 25.4844 9.625C25.8672 9.625 26.1953 9.67969 26.1953 10.0078C26.1953 10.2266 26.1406 10.2812 26.1406 10.2812C26.1406 10.2812 25.8125 10.2812 25.6484 10.2812C24.7188 10.2812 23.6797 10.6641 23.6797 11.9219C23.6797 12.9063 24.3359 13.125 24.7188 13.125C25.4844 13.125 25.8125 12.6328 25.8672 12.6328L25.8125 13.0703H26.7969L27.2344 10.0625C27.2344 8.80469 26.1406 8.75 25.7031 8.75M26.5234 11.1016C26.5234 11.2656 25.8672 12.1406 25.2109 12.1406C24.8828 12.1406 24.7734 11.8672 24.7734 11.7031C24.7734 11.4297 24.9375 11.0469 25.7578 11.0469C25.9766 11.1016 26.5234 11.1016 26.5234 11.1016Z" fill="#9E9E9E"/>
<path d="M27.0156 13.0156H28.1641C28.4922 11.2109 28.5469 9.73437 29.3125 10.0078C29.4219 9.29687 29.5859 9.02344 29.6953 8.75C29.6953 8.75 29.6406 8.75 29.4766 8.75C28.9844 8.75 28.6016 9.40625 28.6016 9.40625L28.7109 8.80469" fill="#9E9E9E"/>
</svg>
