<svg width="30" height="30" viewBox="0 0 30 30" fill="none" xmlns="http://www.w3.org/2000/svg">
<g clip-path="url(#clip0_30_714)">
<path d="M29.1484 5.40108L24.599 0.85162C24.0498 0.302416 23.3197 0 22.543 0C21.7665 0 21.0363 0.302416 20.4872 0.851603L1.44299 19.8957C1.26222 20.0765 1.1457 20.3116 1.11135 20.5649L0.0106219 28.6742C-0.0384418 29.0359 0.0842175 29.3997 0.342306 29.6577C0.562916 29.8783 0.860765 30 1.16854 30C1.22075 30 1.2733 29.9965 1.32579 29.9894L9.43506 28.8887C9.68841 28.8543 9.92349 28.7378 10.1043 28.557L29.1484 9.51295C29.6976 8.9638 30 8.23363 30 7.45704C30 6.68038 29.6976 5.95024 29.1484 5.40108ZM8.73025 26.6257L2.53307 27.4669L3.37426 21.2697L16.8695 7.77453L22.2254 13.1305L8.73025 26.6257ZM27.4957 7.86026L23.8781 11.4779L18.5221 6.12187L22.1397 2.50428C22.2851 2.35892 22.4548 2.3372 22.543 2.3372C22.6313 2.3372 22.8009 2.35892 22.9463 2.50428L27.4958 7.05374C27.6411 7.19907 27.6628 7.36878 27.6628 7.45699C27.6628 7.5452 27.6411 7.7149 27.4957 7.86026Z" fill="#9E9E9E"/>
</g>
<defs>
<clipPath id="clip0_30_714">
<rect width="30" height="30" fill="white"/>
</clipPath>
</defs>
</svg>
