<svg width="232" height="232" viewBox="0 0 232 232" fill="none" xmlns="http://www.w3.org/2000/svg">
<path d="M42.5423 58H64.998L71.9 38.5217C74.046 32.0837 80.049 29 86.835 29H145.164C151.95 29 157.953 32.0837 160.099 38.5217L167.001 58H189.456C203.918 58 212.666 70.0543 212.666 84.5157V178.959C212.666 193.42 203.918 203 189.456 203H42.552C28.081 203 19.3327 193.42 19.3327 178.959V84.5157C19.3327 70.0543 28.081 58 42.5423 58ZM28.9993 178.959C28.9993 187.64 33.8617 193.333 42.5423 193.333H189.456C198.137 193.333 202.999 187.64 202.999 178.959V84.5157C202.999 75.8447 198.137 67.6667 189.456 67.6667H163.221C160.959 67.6667 158.958 66.7773 158.243 64.641L150.142 41.296C149.427 39.15 147.426 38.6667 145.164 38.6667H86.835C84.573 38.6667 82.572 39.4207 81.8567 41.5763L73.756 64.9793C73.0407 67.1157 71.0397 67.6667 68.7777 67.6667H42.5423C33.8617 67.6667 28.9993 75.8447 28.9993 84.5157V178.959Z" fill="#D9D9D9" fill-opacity="0.5"/>
<path d="M116 74.0273C144.932 74.0273 168.471 97.5657 168.471 126.498C168.471 155.43 144.932 178.959 116 178.959C87.0677 178.959 63.5294 155.421 63.5294 126.488C63.5294 97.556 87.0677 74.0273 116 74.0273ZM116 168.471C139.142 168.471 157.973 149.64 157.973 126.498C157.973 103.356 139.142 84.5157 116 84.5157C92.858 84.5157 74.0274 103.346 74.0274 126.488C74.0274 149.63 92.858 168.471 116 168.471Z" fill="#D9D9D9" fill-opacity="0.5"/>
</svg>
