<svg width="47" height="47" viewBox="0 0 47 47" fill="none" xmlns="http://www.w3.org/2000/svg">
<rect width="47" height="47" rx="15" fill="#34302D"/>
<path d="M9.83333 32.0417H23.6708C24.3542 34.9458 27.0875 37.1667 30.3333 37.1667C33.5792 37.1667 36.1417 34.9458 36.9958 32.0417H37.1667C38.1917 32.0417 38.875 31.3583 38.875 30.3333C38.875 29.3083 38.1917 28.625 37.1667 28.625H36.9958C36.3125 25.7208 33.5792 23.5 30.3333 23.5C27.0875 23.5 24.525 25.7208 23.6708 28.625H9.83333C8.80833 28.625 8.125 29.3083 8.125 30.3333C8.125 31.3583 8.80833 32.0417 9.83333 32.0417ZM30.3333 26.9167C32.2125 26.9167 33.75 28.4542 33.75 30.3333C33.75 32.2125 32.2125 33.75 30.3333 33.75C28.4542 33.75 26.9167 32.2125 26.9167 30.3333C26.9167 28.4542 28.4542 26.9167 30.3333 26.9167Z" fill="#D9D9D9"/>
<path d="M9.83333 18.3752H10.0042C10.6875 21.2793 13.4208 23.5002 16.6667 23.5002C19.9125 23.5002 22.475 21.2793 23.3292 18.3752H37.1667C38.1917 18.3752 38.875 17.6918 38.875 16.6668C38.875 15.6418 38.1917 14.9585 37.1667 14.9585H23.3292C22.6458 12.0543 19.9125 9.8335 16.6667 9.8335C13.4208 9.8335 10.8583 12.0543 10.0042 14.9585H9.83333C8.80833 14.9585 8.125 15.6418 8.125 16.6668C8.125 17.6918 8.80833 18.3752 9.83333 18.3752ZM16.6667 13.2502C18.5458 13.2502 20.0833 14.7877 20.0833 16.6668C20.0833 18.546 18.5458 20.0835 16.6667 20.0835C14.7875 20.0835 13.25 18.546 13.25 16.6668C13.25 14.7877 14.7875 13.2502 16.6667 13.2502Z" fill="#D9D9D9"/>
</svg>
