<svg width="25" height="23" viewBox="0 0 25 23" fill="none" xmlns="http://www.w3.org/2000/svg">
<path d="M11.549 0.926637C11.8483 0.00537467 13.1517 0.00537491 13.451 0.926638L15.5312 7.32794C15.6651 7.73993 16.049 8.01887 16.4822 8.01888L23.213 8.01914C24.1817 8.01917 24.5845 9.25872 23.8008 9.82813L18.3556 13.7846C18.0052 14.0392 17.8585 14.4906 17.9924 14.9026L20.0721 21.304C20.3714 22.2253 19.3169 22.9914 18.5332 22.4221L13.0878 18.466C12.7373 18.2114 12.2627 18.2114 11.9122 18.466L6.46676 22.4221C5.68306 22.9914 4.62863 22.2253 4.92794 21.304L7.00763 14.9026C7.14148 14.4906 6.99483 14.0392 6.64438 13.7846L1.19919 9.82813C0.415529 9.25872 0.818283 8.01917 1.78697 8.01914L8.51777 8.01888C8.95097 8.01887 9.3349 7.73993 9.46878 7.32794L11.549 0.926637Z" fill="#D3C05A"/>
</svg>
