<svg xmlns="http://www.w3.org/2000/svg" width="47" height="47" fill="none"><g clip-path="url(#a)"><path fill="#3E3E3E" fill-opacity=".7" d="M3.592 17.046a1.75 1.75 0 0 0-.866 2.318l4.32 9.475c.385.848.71 1.679 1.394 1.934l21.075 7.88a1.323 1.323 0 0 0 1.704-.776l6.023-16.11a1.324 1.324 0 0 0-.776-1.703l-21.076-7.88c-.683-.255-1.455.15-2.32.545l-9.478 4.317Z"/><path fill="#D9D9D9" d="M10.693 18.912a2.1 2.1 0 1 0-3.822 1.742 2.1 2.1 0 0 0 3.822-1.742Z"/></g><defs><clipPath id="a"><path fill="#fff" d="M14.515 46.363 0 14.515 31.85 0l14.513 31.85z"/></clipPath></defs></svg>