<svg xmlns="http://www.w3.org/2000/svg" width="25" height="27" fill="none"><path fill="#3E3E3E" fill-opacity=".7" fill-rule="evenodd" d="M7.917 1.87c0-.678-.56-1.227-1.25-1.227s-1.25.549-1.25 1.227v1.286H1.25C.56 3.156 0 3.705 0 4.383S.56 5.61 1.25 5.61h4.167v1.286c0 .678.56 1.227 1.25 1.227s1.25-.55 1.25-1.227V5.61h15.595c.69 0 1.25-.55 1.25-1.227 0-.678-.56-1.227-1.25-1.227H7.917V1.87ZM0 13.734c0-.678.56-1.228 1.25-1.228h14.643V11.22c0-.677.56-1.227 1.25-1.227s1.25.55 1.25 1.227v1.286h5.119c.69 0 1.25.55 1.25 1.227a1.24 1.24 0 0 1-1.25 1.228h-5.12v1.286c0 .677-.559 1.227-1.25 1.227-.69 0-1.25-.55-1.25-1.227V14.96H1.25c-.69 0-1.25-.55-1.25-1.228Zm0 9.35c0-.678.56-1.227 1.25-1.227h4.167V20.57c0-.678.56-1.227 1.25-1.227s1.25.55 1.25 1.227v1.286h15.595c.69 0 1.25.55 1.25 1.227 0 .678-.56 1.227-1.25 1.227H7.917v1.286c0 .678-.56 1.227-1.25 1.227s-1.25-.55-1.25-1.227V24.31H1.25c-.69 0-1.25-.55-1.25-1.227Z" clip-rule="evenodd"/></svg>