<svg width="60" height="50" viewBox="0 0 60 50" fill="none" xmlns="http://www.w3.org/2000/svg">
<mask id="path-1-inside-1_886_946" fill="white">
<path d="M29.9144 50C29.123 50.0019 28.3391 49.85 27.6077 49.5531C26.8763 49.2561 26.2118 48.82 25.6526 48.2698L5.04375 28.0184C3.41573 26.4013 2.13148 24.4819 1.26582 22.3722C0.400162 20.2625 -0.0295961 18.0046 0.00158273 15.73C0.0172689 13.6456 0.451293 11.5847 1.27879 9.6653C2.1063 7.74596 3.31102 6.00589 4.82395 4.54477C6.33688 3.08366 8.12829 1.9302 10.0956 1.15047C12.0629 0.370738 14.1674 -0.0199428 16.2886 0.000803965C18.4477 -0.0205677 20.5893 0.384352 22.5862 1.19155C24.5831 1.99875 26.3947 3.19178 27.9136 4.6999L29.9144 6.66605L31.5551 5.05381C34.3882 2.19614 38.1791 0.444196 42.2258 0.122458C46.2726 -0.199279 50.3008 0.930995 53.5646 3.30393C55.4224 4.70983 56.9541 6.48854 58.0577 8.52162C59.1612 10.5547 59.8113 12.7955 59.9647 15.0948C60.118 17.3941 59.7711 19.699 58.947 21.8563C58.1229 24.0135 56.8405 25.9734 55.1853 27.6055L34.1762 48.2698C33.617 48.82 32.9526 49.2561 32.2212 49.5531C31.4897 49.85 30.7058 50.0019 29.9144 50ZM16.2085 3.91344C13.0282 3.91025 9.97139 5.12305 7.68488 7.29522C6.51917 8.39733 5.59216 9.71958 4.9595 11.1826C4.32685 12.6455 4.0016 14.2191 4.0033 15.8086C3.98576 17.5572 4.32161 19.2917 4.99136 20.9117C5.66111 22.5318 6.65146 24.005 7.90497 25.2462L28.5138 45.4975C28.6998 45.6818 28.9211 45.8281 29.1649 45.9279C29.4088 46.0277 29.6703 46.0791 29.9344 46.0791C30.1986 46.0791 30.4601 46.0277 30.7039 45.9279C30.9477 45.8281 31.169 45.6818 31.355 45.4975L52.3841 24.8136C53.6184 23.575 54.5721 22.0938 55.1825 20.4672C55.7929 18.8407 56.0461 17.1056 55.9256 15.3761C55.8187 13.6288 55.329 11.9248 54.4898 10.3808C53.6506 8.83676 52.4818 7.48912 51.0635 6.43011C48.5747 4.62694 45.5036 3.77435 42.4226 4.03117C39.3415 4.288 36.4605 5.63673 34.3163 7.82608L31.335 10.8343C31.149 11.0186 30.9277 11.1648 30.6839 11.2647C30.4401 11.3645 30.1786 11.4159 29.9144 11.4159C29.6503 11.4159 29.3888 11.3645 29.1449 11.2647C28.9011 11.1648 28.6798 11.0186 28.4938 10.8343L25.0923 7.49183C22.7495 5.20968 19.5874 3.92439 16.2886 3.91344H16.2085Z"/>
</mask>
<path d="M29.9144 50C29.123 50.0019 28.3391 49.85 27.6077 49.5531C26.8763 49.2561 26.2118 48.82 25.6526 48.2698L5.04375 28.0184C3.41573 26.4013 2.13148 24.4819 1.26582 22.3722C0.400162 20.2625 -0.0295961 18.0046 0.00158273 15.73C0.0172689 13.6456 0.451293 11.5847 1.27879 9.6653C2.1063 7.74596 3.31102 6.00589 4.82395 4.54477C6.33688 3.08366 8.12829 1.9302 10.0956 1.15047C12.0629 0.370738 14.1674 -0.0199428 16.2886 0.000803965C18.4477 -0.0205677 20.5893 0.384352 22.5862 1.19155C24.5831 1.99875 26.3947 3.19178 27.9136 4.6999L29.9144 6.66605L31.5551 5.05381C34.3882 2.19614 38.1791 0.444196 42.2258 0.122458C46.2726 -0.199279 50.3008 0.930995 53.5646 3.30393C55.4224 4.70983 56.9541 6.48854 58.0577 8.52162C59.1612 10.5547 59.8113 12.7955 59.9647 15.0948C60.118 17.3941 59.7711 19.699 58.947 21.8563C58.1229 24.0135 56.8405 25.9734 55.1853 27.6055L34.1762 48.2698C33.617 48.82 32.9526 49.2561 32.2212 49.5531C31.4897 49.85 30.7058 50.0019 29.9144 50ZM16.2085 3.91344C13.0282 3.91025 9.97139 5.12305 7.68488 7.29522C6.51917 8.39733 5.59216 9.71958 4.9595 11.1826C4.32685 12.6455 4.0016 14.2191 4.0033 15.8086C3.98576 17.5572 4.32161 19.2917 4.99136 20.9117C5.66111 22.5318 6.65146 24.005 7.90497 25.2462L28.5138 45.4975C28.6998 45.6818 28.9211 45.8281 29.1649 45.9279C29.4088 46.0277 29.6703 46.0791 29.9344 46.0791C30.1986 46.0791 30.4601 46.0277 30.7039 45.9279C30.9477 45.8281 31.169 45.6818 31.355 45.4975L52.3841 24.8136C53.6184 23.575 54.5721 22.0938 55.1825 20.4672C55.7929 18.8407 56.0461 17.1056 55.9256 15.3761C55.8187 13.6288 55.329 11.9248 54.4898 10.3808C53.6506 8.83676 52.4818 7.48912 51.0635 6.43011C48.5747 4.62694 45.5036 3.77435 42.4226 4.03117C39.3415 4.288 36.4605 5.63673 34.3163 7.82608L31.335 10.8343C31.149 11.0186 30.9277 11.1648 30.6839 11.2647C30.4401 11.3645 30.1786 11.4159 29.9144 11.4159C29.6503 11.4159 29.3888 11.3645 29.1449 11.2647C28.9011 11.1648 28.6798 11.0186 28.4938 10.8343L25.0923 7.49183C22.7495 5.20968 19.5874 3.92439 16.2886 3.91344H16.2085Z" fill="#F54B64"/>
<path d="M29.9144 50L29.9987 15.0001L29.9144 14.9999L29.8301 15.0001L29.9144 50ZM25.6526 48.2698L50.1995 23.3208L50.1917 23.3131L50.1838 23.3055L25.6526 48.2698ZM5.04375 28.0184L-19.6221 52.8498L-19.555 52.9165L-19.4875 52.9828L5.04375 28.0184ZM0.00158273 15.73L34.9983 16.2097L34.9998 16.1016L35.0006 15.9934L0.00158273 15.73ZM16.2886 0.000803965L15.9463 34.9991L16.2906 35.0025L16.635 34.9991L16.2886 0.000803965ZM27.9136 4.6999L3.25293 29.5364L3.31745 29.6005L3.3823 29.6642L27.9136 4.6999ZM29.9144 6.66605L5.38316 31.6304L29.9144 55.7361L54.4457 31.6304L29.9144 6.66605ZM31.5551 5.05381L56.0864 30.0181L56.2496 29.8577L56.4107 29.6952L31.5551 5.05381ZM53.5646 3.30393L74.6847 -24.6056L74.4176 -24.8077L74.1468 -25.0046L53.5646 3.30393ZM55.1853 27.6055L79.7284 52.5582L79.7439 52.5429L79.7594 52.5276L55.1853 27.6055ZM34.1762 48.2698L9.6331 23.3171L9.62935 23.3208L34.1762 48.2698ZM16.2085 3.91344L16.1734 38.9134L16.191 38.9134H16.2085V3.91344ZM7.68488 7.29522L31.7302 32.728L31.7606 32.6992L31.791 32.6703L7.68488 7.29522ZM4.0033 15.8086L39.0015 16.1597L39.0035 15.9655L39.0033 15.7713L4.0033 15.8086ZM7.90497 25.2462L-16.7204 50.1176L-16.6734 50.1642L-16.6263 50.2105L7.90497 25.2462ZM28.5138 45.4975L53.1472 20.634L53.0962 20.5835L53.0451 20.5332L28.5138 45.4975ZM31.355 45.4975L6.81191 20.5449L6.76669 20.5893L6.72163 20.634L31.355 45.4975ZM52.3841 24.8136L76.9272 49.7663L77.0517 49.6438L77.1751 49.52L52.3841 24.8136ZM55.9256 15.3761L20.9908 17.5124L20.9999 17.661L21.0103 17.8095L55.9256 15.3761ZM51.0635 6.43011L72.0032 -21.615L71.8018 -21.7654L71.5983 -21.9128L51.0635 6.43011ZM34.3163 7.82608L59.1761 32.4633L59.2491 32.3896L59.3218 32.3154L34.3163 7.82608ZM31.335 10.8343L55.9684 35.6978L56.0821 35.5852L56.1948 35.4715L31.335 10.8343ZM29.9144 11.4159V-23.5841V11.4159ZM28.4938 10.8343L53.1272 -14.0293L53.0762 -14.0797L53.0251 -14.13L28.4938 10.8343ZM25.0923 7.49183L49.6236 -17.4725L49.5692 -17.526L49.5145 -17.5793L25.0923 7.49183ZM16.2886 3.91344L16.4047 -31.0864L16.3467 -31.0866H16.2886V3.91344ZM29.8301 15.0001C33.5685 14.9911 37.2857 15.7078 40.7733 17.1237L14.442 81.9825C19.3925 83.9922 24.6776 85.0127 29.9987 84.9999L29.8301 15.0001ZM40.7733 17.1237C44.2618 18.5399 47.4706 20.6359 50.1995 23.3208L1.10569 73.2187C4.95303 77.0041 9.49073 79.9723 14.442 81.9825L40.7733 17.1237ZM50.1838 23.3055L29.575 3.05412L-19.4875 52.9828L1.12133 73.2341L50.1838 23.3055ZM29.7096 3.18707C31.3769 4.84324 32.7257 6.84297 33.646 9.08601L-31.1144 35.6584C-28.4627 42.1209 -24.5454 47.9593 -19.6221 52.8498L29.7096 3.18707ZM33.646 9.08601C34.567 11.3305 35.032 13.7541 34.9983 16.2097L-34.9951 15.2503C-35.0911 22.255 -33.7666 29.1945 -31.1144 35.6584L33.646 9.08601ZM35.0006 15.9934C34.981 18.5986 34.4379 21.1588 33.4189 23.5221L-30.8614 -4.1915C-33.5353 2.01051 -34.9464 8.69253 -34.9974 15.4666L35.0006 15.9934ZM33.4189 23.5221C32.4006 25.884 30.9354 27.9848 29.1378 29.7209L-19.4899 -20.6313C-24.3134 -15.973 -28.188 -10.3921 -30.8614 -4.1915L33.4189 23.5221ZM29.1378 29.7209C27.3415 31.4557 25.2478 32.7938 22.9917 33.688L-2.80056 -31.387C-8.99126 -28.9334 -14.6678 -25.2883 -19.4899 -20.6313L29.1378 29.7209ZM22.9917 33.688C20.7366 34.5818 18.3443 35.0226 15.9463 34.9991L16.6309 -34.9975C9.99044 -35.0625 3.38912 -33.8403 -2.80056 -31.387L22.9917 33.688ZM16.635 34.9991C14.1942 35.0233 11.7594 34.5664 9.46942 33.6408L35.7029 -31.2577C29.4191 -33.7977 22.7013 -35.0644 15.9422 -34.9975L16.635 34.9991ZM9.46942 33.6408C7.17831 32.7146 5.05876 31.3295 3.25293 29.5364L52.5742 -20.1366C47.7306 -24.9459 41.9878 -28.7171 35.7029 -31.2577L9.46942 33.6408ZM3.3823 29.6642L5.38316 31.6304L54.4457 -18.2983L52.4448 -20.2644L3.3823 29.6642ZM54.4457 31.6304L56.0864 30.0181L7.02386 -19.9105L5.38316 -18.2983L54.4457 31.6304ZM56.4107 29.6952C53.2897 32.8434 49.2217 34.6767 44.9998 35.0124L39.4519 -34.7674C27.1365 -33.7883 15.4867 -28.4511 6.69951 -19.5876L56.4107 29.6952ZM44.9998 35.0124C40.7806 35.3478 36.5147 34.1807 32.9823 31.6125L74.1468 -25.0046C64.087 -32.3187 51.7646 -35.7464 39.4519 -34.7674L44.9998 35.0124ZM32.4444 31.2134C30.3563 29.6333 28.5893 27.5992 27.2971 25.2186L88.8182 -8.17531C85.3189 -14.6221 80.4885 -20.2136 74.6847 -24.6056L32.4444 31.2134ZM27.2971 25.2186C26.0038 22.8359 25.2259 20.1778 25.0422 17.4238L94.8871 12.7658C94.3967 5.41318 92.3187 -1.72649 88.8182 -8.17531L27.2971 25.2186ZM25.0422 17.4238C24.8585 14.6693 25.2761 11.9194 26.2516 9.36585L91.6424 34.3467C94.2661 27.4787 95.3775 20.1188 94.8871 12.7658L25.0422 17.4238ZM26.2516 9.36585C27.2264 6.81406 28.7257 4.54257 30.6111 2.68347L79.7594 52.5276C84.9553 47.4043 89.0193 41.2129 91.6424 34.3467L26.2516 9.36585ZM30.6421 2.6529L9.6331 23.3171L58.7194 73.2224L79.7284 52.5582L30.6421 2.6529ZM9.62935 23.3208C12.3581 20.636 15.567 18.5399 19.0555 17.1237L45.3868 81.9825C50.3382 79.9723 54.8759 77.004 58.7231 73.2187L9.62935 23.3208ZM19.0555 17.1237C22.5431 15.7078 26.2603 14.9911 29.9987 15.0001L29.8301 84.9999C35.1512 85.0127 40.4364 83.9922 45.3868 81.9825L19.0555 17.1237ZM16.2436 -31.0865C4.16353 -31.0987 -7.56032 -26.4977 -16.4213 -18.0799L31.791 32.6703C27.5031 36.7438 21.8929 38.9192 16.1734 38.9134L16.2436 -31.0865ZM-16.3604 -18.1375C-20.9507 -13.7976 -24.637 -8.55622 -27.1654 -2.70965L37.0844 25.0748C35.8214 27.9954 33.9891 30.5923 31.7302 32.728L-16.3604 -18.1375ZM-27.1654 -2.70965C-29.6943 3.13845 -31.0035 9.45196 -30.9967 15.846L39.0033 15.7713C39.0067 18.9862 38.348 22.1526 37.0844 25.0748L-27.1654 -2.70965ZM-30.9949 15.4576C-31.0598 21.9246 -29.8167 28.3256 -27.3535 34.2838L37.3362 7.53969C38.4599 10.2578 39.0313 13.1898 39.0015 16.1597L-30.9949 15.4576ZM-27.3535 34.2838C-24.8908 40.2406 -21.266 45.617 -16.7204 50.1176L32.5304 0.37468C34.5689 2.3931 36.213 4.82297 37.3362 7.53969L-27.3535 34.2838ZM-16.6263 50.2105L3.98255 70.4618L53.0451 20.5332L32.4362 0.281844L-16.6263 50.2105ZM3.88042 70.361C7.3479 73.7964 11.4399 76.4909 15.9045 78.3186L42.4254 13.5371C46.4023 15.1653 50.0517 17.5671 53.1472 20.634L3.88042 70.361ZM15.9045 78.3186C20.3684 80.1461 25.135 81.0791 29.9344 81.0791V11.0791C34.2056 11.0791 38.4491 11.9093 42.4254 13.5371L15.9045 78.3186ZM29.9344 81.0791C34.7338 81.0791 39.5004 80.1461 43.9644 78.3186L17.4435 13.5371C21.4198 11.9093 25.6633 11.0791 29.9344 11.0791V81.0791ZM43.9644 78.3186C48.4291 76.4908 52.521 73.7963 55.9884 70.361L6.72163 20.634C9.81703 17.5672 13.4664 15.1653 17.4435 13.5371L43.9644 78.3186ZM55.8982 70.4502L76.9272 49.7663L27.8409 -0.139043L6.81191 20.5449L55.8982 70.4502ZM77.1751 49.52C81.8965 44.7824 85.5818 39.0782 87.9512 32.764L22.4138 8.17046C23.5625 5.10933 25.3404 2.3676 27.5931 0.107209L77.1751 49.52ZM87.9512 32.764C90.3213 26.4481 91.3111 19.69 90.8409 12.9426L21.0103 17.8095C20.7811 14.5213 21.2644 11.2333 22.4138 8.17046L87.9512 32.764ZM90.8603 13.2398C90.4399 6.36567 88.5137 -0.311682 85.2414 -6.33254L23.7381 27.0941C22.1442 24.1613 21.1975 20.8919 20.9908 17.5124L90.8603 13.2398ZM85.2414 -6.33254C81.9703 -12.3513 77.4418 -17.5543 72.0032 -21.615L30.1238 34.4752C27.5219 32.5325 25.3309 30.0248 23.7381 27.0941L85.2414 -6.33254ZM71.5983 -21.9128C62.2843 -28.6609 50.8856 -31.7956 39.5152 -30.8479L45.3299 38.9102C40.1217 39.3443 34.8651 37.9148 30.5287 34.7731L71.5983 -21.9128ZM39.5152 -30.8479C28.1419 -29.8998 17.3924 -24.9151 9.31084 -16.6632L59.3218 32.3154C55.5286 36.1886 50.541 38.4758 45.3299 38.9102L39.5152 -30.8479ZM9.45654 -16.8111L6.47526 -13.8029L56.1948 35.4715L59.1761 32.4633L9.45654 -16.8111ZM6.70163 -14.0293C9.79708 -17.0961 13.4465 -19.498 17.4234 -21.1261L43.9444 43.6554C48.409 41.8276 52.501 39.1332 55.9684 35.6978L6.70163 -14.0293ZM17.4234 -21.1261C21.3993 -22.7538 25.6428 -23.5841 29.9144 -23.5841V46.4159C34.7143 46.4159 39.4809 45.4827 43.9444 43.6554L17.4234 -21.1261ZM29.9144 -23.5841C34.1861 -23.5841 38.4296 -22.7537 42.4054 -21.1261L15.8845 43.6554C20.3479 45.4827 25.1144 46.4159 29.9144 46.4159V-23.5841ZM42.4054 -21.1261C46.3822 -19.498 50.0317 -17.0961 53.1272 -14.0293L3.86041 35.6978C7.32796 39.1333 11.42 41.8277 15.8845 43.6554L42.4054 -21.1261ZM53.0251 -14.13L49.6236 -17.4725L0.561082 32.4561L3.96254 35.7986L53.0251 -14.13ZM49.5145 -17.5793C40.6025 -26.2606 28.6992 -31.0456 16.4047 -31.0864L16.1724 38.9132C10.4756 38.8943 4.89664 36.6799 0.670223 32.5629L49.5145 -17.5793ZM16.2886 -31.0866H16.2085V38.9134H16.2886V-31.0866Z" fill="#F54B64" mask="url(#path-1-inside-1_886_946)"/>
</svg>
