<svg xmlns="http://www.w3.org/2000/svg" width="232" height="232" fill="none"><path fill="#D9D9D9" fill-opacity=".5" d="M42.542 58h22.456L71.9 38.522C74.046 32.084 80.049 29 86.835 29h58.329c6.786 0 12.789 3.084 14.935 9.522L167.001 58h22.455c14.462 0 23.21 12.054 23.21 26.516v94.443c0 14.461-8.748 24.041-23.21 24.041H42.552c-14.471 0-23.22-9.58-23.22-24.041V84.516C19.333 70.054 28.082 58 42.543 58ZM29 178.959c0 8.681 4.863 14.374 13.543 14.374h146.914c8.681 0 13.543-5.693 13.543-14.374V84.516c0-8.671-4.862-16.85-13.543-16.85h-26.235c-2.262 0-4.263-.889-4.978-3.025l-8.101-23.345c-.715-2.146-2.716-2.63-4.978-2.63h-58.33c-2.262 0-4.263.755-4.978 2.91L73.756 64.98c-.715 2.137-2.716 2.688-4.978 2.688H42.542C33.862 67.667 29 75.845 29 84.516v94.443Z"/><path fill="#D9D9D9" fill-opacity=".5" d="M116 74.027c28.932 0 52.471 23.539 52.471 52.471 0 28.932-23.539 52.461-52.471 52.461-28.932 0-52.47-23.538-52.47-52.471 0-28.932 23.538-52.46 52.47-52.46Zm0 94.444c23.142 0 41.973-18.831 41.973-41.973S139.142 84.516 116 84.516s-41.973 18.83-41.973 41.972c0 23.142 18.831 41.983 41.973 41.983Z"/></svg>