<svg width="47" height="47" viewBox="0 0 47 47" fill="none" xmlns="http://www.w3.org/2000/svg">
<g clip-path="url(#clip0_772_668)">
<path d="M3.59227 17.0462C2.71261 17.447 2.32467 18.4846 2.72555 19.3643C2.77084 19.4637 7.04511 28.8393 7.04511 28.8393C7.43119 29.6865 7.75613 30.5177 8.44045 30.7735L29.5155 38.6537C30.2001 38.9102 30.9632 38.5624 31.2187 37.8775L37.2421 21.7673C37.4979 21.083 37.1502 20.3199 36.4659 20.064L15.3905 12.1848C14.7068 11.9287 13.9354 12.3341 13.0691 12.7289C13.0691 12.7289 3.69164 17.0009 3.59227 17.0462Z" fill="#3E3E3E" fill-opacity="0.7"/>
<path d="M10.6932 18.9118C10.2122 17.8565 8.96677 17.3908 7.91139 17.8718C6.85602 18.3527 6.39037 19.5982 6.87133 20.6535C7.35229 21.7089 8.59773 22.1746 9.65311 21.6936C10.7085 21.2126 11.1741 19.9672 10.6932 18.9118Z" fill="#D9D9D9"/>
</g>
<defs>
<clipPath id="clip0_772_668">
<rect width="35" height="35" fill="white" transform="translate(14.5146 46.3633) rotate(-114.5)"/>
</clipPath>
</defs>
</svg>
