<svg width="25" height="27" viewBox="0 0 25 27" fill="none" xmlns="http://www.w3.org/2000/svg">
<path fill-rule="evenodd" clip-rule="evenodd" d="M7.91667 1.86985C7.91667 1.19205 7.35703 0.642578 6.66667 0.642578C5.9763 0.642578 5.41667 1.19205 5.41667 1.86985V3.15557H1.25C0.559647 3.15557 0 3.70503 0 4.38284C0 5.06064 0.559647 5.61011 1.25 5.61011H5.41667V6.89582C5.41667 7.57363 5.9763 8.1231 6.66667 8.1231C7.35703 8.1231 7.91667 7.57363 7.91667 6.89582V5.61011H23.5119C24.2023 5.61011 24.7619 5.06064 24.7619 4.38284C24.7619 3.70503 24.2023 3.15557 23.5119 3.15557H7.91667V1.86985ZM0 13.7335C0 13.0557 0.559647 12.5062 1.25 12.5062H15.8929V11.2205C15.8929 10.5427 16.4525 9.99322 17.1429 9.99322C17.8332 9.99322 18.3929 10.5427 18.3929 11.2205V12.5062H23.5119C24.2023 12.5062 24.7619 13.0557 24.7619 13.7335C24.7619 14.4113 24.2023 14.9608 23.5119 14.9608H18.3929V16.2465C18.3929 16.9243 17.8332 17.4737 17.1429 17.4737C16.4525 17.4737 15.8929 16.9243 15.8929 16.2465V14.9608H1.25C0.559647 14.9608 0 14.4113 0 13.7335ZM0 23.0841C0 22.4063 0.559647 21.8569 1.25 21.8569H5.41667V20.5711C5.41667 19.8933 5.97632 19.3439 6.66667 19.3439C7.35703 19.3439 7.91667 19.8933 7.91667 20.5711V21.8569H23.5119C24.2023 21.8569 24.7619 22.4063 24.7619 23.0841C24.7619 23.7619 24.2023 24.3114 23.5119 24.3114H7.91667V25.5971C7.91667 26.2749 7.35703 26.8244 6.66667 26.8244C5.97632 26.8244 5.41667 26.2749 5.41667 25.5971V24.3114H1.25C0.559647 24.3114 0 23.7619 0 23.0841Z" fill="#3E3E3E" fill-opacity="0.7"/>
</svg>
