<svg xmlns="http://www.w3.org/2000/svg" width="60" height="50" fill="none"><mask id="a" fill="#fff"><path d="M29.914 50a6.095 6.095 0 0 1-2.306-.447 6.012 6.012 0 0 1-1.955-1.283L5.043 28.018a17.121 17.121 0 0 1-3.777-5.646A16.883 16.883 0 0 1 .002 15.73c.015-2.084.45-4.145 1.277-6.065a15.838 15.838 0 0 1 3.545-5.12 16.156 16.156 0 0 1 5.272-3.395A16.377 16.377 0 0 1 16.289 0c2.159-.02 4.3.384 6.297 1.192 1.997.807 3.809 2 5.328 3.508l2 1.966 1.641-1.612A16.912 16.912 0 0 1 42.225.122a17.001 17.001 0 0 1 11.34 3.182 16.298 16.298 0 0 1 4.493 5.218 15.965 15.965 0 0 1 .89 13.335 16.192 16.192 0 0 1-3.763 5.748L34.176 48.27a6.005 6.005 0 0 1-1.955 1.283 6.096 6.096 0 0 1-2.307.447ZM16.208 3.913a12.36 12.36 0 0 0-8.523 3.382 11.793 11.793 0 0 0-2.725 3.888 11.62 11.62 0 0 0-.957 4.626 13.011 13.011 0 0 0 .988 5.103c.67 1.62 1.66 3.093 2.914 4.334l20.609 20.252a2.003 2.003 0 0 0 1.42.581 2.032 2.032 0 0 0 1.421-.581l21.03-20.684a12.263 12.263 0 0 0 2.797-4.347c.61-1.626.864-3.361.744-5.09a11.992 11.992 0 0 0-1.436-4.996 12.211 12.211 0 0 0-3.427-3.95 12.909 12.909 0 0 0-8.64-2.4 12.838 12.838 0 0 0-8.107 3.795l-2.981 3.008a2.004 2.004 0 0 1-1.42.582 2.032 2.032 0 0 1-1.421-.582l-3.402-3.342a12.68 12.68 0 0 0-8.803-3.579h-.08Z"/></mask><path fill="#F54B64" d="M29.914 50a6.095 6.095 0 0 1-2.306-.447 6.012 6.012 0 0 1-1.955-1.283L5.043 28.018a17.121 17.121 0 0 1-3.777-5.646A16.883 16.883 0 0 1 .002 15.73c.015-2.084.45-4.145 1.277-6.065a15.838 15.838 0 0 1 3.545-5.12 16.156 16.156 0 0 1 5.272-3.395A16.377 16.377 0 0 1 16.289 0c2.159-.02 4.3.384 6.297 1.192 1.997.807 3.809 2 5.328 3.508l2 1.966 1.641-1.612A16.912 16.912 0 0 1 42.225.122a17.001 17.001 0 0 1 11.34 3.182 16.298 16.298 0 0 1 4.493 5.218 15.965 15.965 0 0 1 .89 13.335 16.192 16.192 0 0 1-3.763 5.748L34.176 48.27a6.005 6.005 0 0 1-1.955 1.283 6.096 6.096 0 0 1-2.307.447ZM16.208 3.913a12.36 12.36 0 0 0-8.523 3.382 11.793 11.793 0 0 0-2.725 3.888 11.62 11.62 0 0 0-.957 4.626 13.011 13.011 0 0 0 .988 5.103c.67 1.62 1.66 3.093 2.914 4.334l20.609 20.252a2.003 2.003 0 0 0 1.42.581 2.032 2.032 0 0 0 1.421-.581l21.03-20.684a12.263 12.263 0 0 0 2.797-4.347c.61-1.626.864-3.361.744-5.09a11.992 11.992 0 0 0-1.436-4.996 12.211 12.211 0 0 0-3.427-3.95 12.909 12.909 0 0 0-8.64-2.4 12.838 12.838 0 0 0-8.107 3.795l-2.981 3.008a2.004 2.004 0 0 1-1.42.582 2.032 2.032 0 0 1-1.421-.582l-3.402-3.342a12.68 12.68 0 0 0-8.803-3.579h-.08Z"/><path fill="#F54B64" d="M29.914 50 30 15h-.169l.084 35Zm-4.261-1.73L50.2 23.32l-.008-.007-.008-.008L25.653 48.27ZM5.043 28.018-19.621 52.85l.067.066.067.067L5.044 28.018ZM.003 15.73l34.996.48.002-.108v-.109L.003 15.73ZM16.289 0l-.343 35 .345.002.344-.003L16.289.001Zm11.625 4.7L3.253 29.536l.064.064.065.064L27.914 4.7Zm2 1.966L5.384 31.63l24.53 24.106L54.446 31.63 29.914 6.666Zm1.641-1.612 24.531 24.964.164-.16.16-.163L31.556 5.054Zm22.01-1.75 21.12-27.91-.267-.202-.271-.197L53.565 3.304Zm1.62 24.301 24.543 24.953.016-.015.015-.015-24.574-24.922ZM34.176 48.27 9.633 23.317l-.004.004L34.176 48.27ZM16.208 3.913l-.035 35h.036v-35ZM7.686 7.295 31.73 32.728l.03-.029.031-.029L7.685 7.295ZM4.003 15.81l34.998.35.003-.193v-.195l-35 .038Zm3.902 9.437L-16.72 50.118l.047.046.047.047L7.905 25.246Zm20.609 20.252 24.633-24.864-.05-.05-.052-.05-24.531 24.964Zm2.841 0L6.812 20.545l-.045.044-.045.045 24.633 24.864Zm21.03-20.684 24.542 24.952.125-.122.123-.124-24.79-24.706Zm3.54-9.438-34.934 2.136.009.149.01.148 34.916-2.433Zm-4.86-8.947 20.94-28.045-.202-.15-.204-.148L51.063 6.43ZM34.316 7.826l24.86 24.637.073-.073.073-.075L34.316 7.826Zm-2.981 3.008 24.633 24.864.114-.113.113-.114-24.86-24.637Zm-1.42.582v-35 35Zm-1.421-.582 24.633-24.863-.05-.05-.052-.051-24.531 24.964Zm-3.402-3.342 24.532-24.965-.055-.053-.055-.053L25.092 7.49ZM16.29 3.913l.116-35h-.116v35ZM29.83 15a28.905 28.905 0 0 1 10.943 2.124L14.442 81.983A41.097 41.097 0 0 0 29.999 85l-.169-70Zm10.943 2.124A28.988 28.988 0 0 1 50.2 23.32L1.106 73.219a41.011 41.011 0 0 0 13.336 8.764l26.331-64.86Zm9.41 6.181L29.576 3.055l-49.063 49.928 20.61 20.251 49.062-49.928ZM29.71 3.188a17.877 17.877 0 0 1 3.936 5.899l-64.76 26.572A52.122 52.122 0 0 0-19.622 52.85L29.71 3.187Zm3.936 5.899a18.115 18.115 0 0 1 1.352 7.124l-69.993-.96a51.885 51.885 0 0 0 3.88 20.408L33.647 9.086Zm1.355 6.907a19.387 19.387 0 0 1-1.582 7.53l-64.28-27.715a50.612 50.612 0 0 0-4.136 19.659L35 15.993Zm-1.582 7.53a19.163 19.163 0 0 1-4.281 6.198L-19.49-20.631a50.84 50.84 0 0 0-11.37 16.44l64.28 27.713Zm-4.281 6.198a18.844 18.844 0 0 1-6.146 3.967L-2.801-31.387A51.154 51.154 0 0 0-19.49-20.631L29.138 29.72Zm-6.146 3.967A18.622 18.622 0 0 1 15.946 35l.685-69.996a51.376 51.376 0 0 0-19.432 3.61l25.793 65.075ZM16.635 35a18.626 18.626 0 0 1-7.166-1.358l26.234-64.899a51.377 51.377 0 0 0-19.76-3.74L16.634 35Zm-7.166-1.358a18.853 18.853 0 0 1-6.216-4.105l49.321-49.673a51.15 51.15 0 0 0-16.871-11.12L9.469 33.64Zm-6.087-3.977 2.001 1.966 49.063-49.928-2.001-1.966L3.382 29.664Zm51.064 1.966 1.64-1.612L7.024-19.91l-1.64 1.612L54.445 31.63Zm1.965-1.935A18.089 18.089 0 0 1 45 35.012l-5.548-69.78A51.912 51.912 0 0 0 6.7-19.587l49.71 49.283ZM45 35.012a18 18 0 0 1-12.018-3.4l41.165-56.617a52.001 52.001 0 0 0-34.695-9.762L45 35.013Zm-12.556-3.799a18.703 18.703 0 0 1-5.147-5.994L88.818-8.175a51.297 51.297 0 0 0-14.133-16.43l-42.24 55.818Zm-5.147-5.994a18.992 18.992 0 0 1-2.255-7.795l69.845-4.658a51.009 51.009 0 0 0-6.069-20.941l-61.52 33.394Zm-2.255-7.795a19.036 19.036 0 0 1 1.21-8.058l65.39 24.98a50.964 50.964 0 0 0 3.245-21.58l-69.845 4.658Zm1.21-8.058a18.808 18.808 0 0 1 4.36-6.683l49.147 49.845a51.192 51.192 0 0 0 11.883-18.181L26.252 9.366Zm4.39-6.713L9.633 23.317 58.72 73.222l21.01-20.664L30.641 2.653ZM9.63 23.32a28.988 28.988 0 0 1 9.426-6.197l26.332 64.859a41.01 41.01 0 0 0 13.336-8.764L9.63 23.32Zm9.426-6.197A28.905 28.905 0 0 1 30 15l-.169 70a41.096 41.096 0 0 0 15.557-3.017l-26.332-64.86Zm-2.811-48.21A47.36 47.36 0 0 0-16.421-18.08L31.79 32.67a22.64 22.64 0 0 1-15.618 6.243l.07-70ZM-16.36-18.139A46.795 46.795 0 0 0-27.165-2.71l64.25 27.785a23.207 23.207 0 0 1-5.355 7.653l-48.09-50.865ZM-27.165-2.71a46.622 46.622 0 0 0-3.832 18.556l70-.075a23.381 23.381 0 0 1-1.919 9.304L-27.166-2.71Zm-3.83 18.168a48.012 48.012 0 0 0 3.642 18.826L37.337 7.54A21.989 21.989 0 0 1 39 16.16l-69.996-.702Zm3.642 18.826A48.196 48.196 0 0 0-16.72 50.118L32.53.375a21.806 21.806 0 0 1 4.806 7.165l-64.69 26.744Zm10.727 15.927L3.983 70.46l49.062-49.928L32.436.282-16.626 50.21ZM3.88 70.36a37.002 37.002 0 0 0 12.024 7.958l26.521-64.782a32.998 32.998 0 0 1 10.722 7.097L3.88 70.361Zm12.024 7.958a37.031 37.031 0 0 0 14.03 2.76v-70c4.272 0 8.515.83 12.491 2.458L15.905 78.32Zm14.03 2.76c4.8 0 9.566-.933 14.03-2.76l-26.52-64.782a32.97 32.97 0 0 1 12.49-2.458v70Zm14.03-2.76a37.003 37.003 0 0 0 12.024-7.958L6.722 20.634a32.996 32.996 0 0 1 10.721-7.097L43.965 78.32Zm11.934-7.869 21.03-20.684L27.84-.139 6.81 20.545 55.899 70.45Zm21.277-20.93a47.261 47.261 0 0 0 10.776-16.756L22.414 8.17a22.738 22.738 0 0 1 5.18-8.063l49.58 49.413Zm10.776-16.756a47.094 47.094 0 0 0 2.89-19.821L21.01 17.81a22.906 22.906 0 0 1 1.403-9.64L87.95 32.764Zm2.91-19.524a46.99 46.99 0 0 0-5.62-19.573L23.738 27.094a23.01 23.01 0 0 1-2.747-9.582l69.87-4.272ZM85.24-6.333a47.21 47.21 0 0 0-13.238-15.282l-41.88 56.09a22.79 22.79 0 0 1-6.385-7.38L85.241-6.334Zm-13.643-15.58a47.91 47.91 0 0 0-32.083-8.935L45.33 38.91a22.092 22.092 0 0 1-14.801-4.137l41.07-56.686Zm-32.083-8.935A47.838 47.838 0 0 0 9.311-16.663l50.01 48.978A22.163 22.163 0 0 1 45.33 38.91l-5.815-69.758ZM9.457-16.81l-2.982 3.008 49.72 49.275 2.981-3.009L9.456-16.81Zm-2.755 2.78a32.997 32.997 0 0 1 10.721-7.097l26.521 64.781a37.003 37.003 0 0 0 12.024-7.957L6.702-14.03Zm10.721-7.097a32.968 32.968 0 0 1 12.491-2.458v70c4.8 0 9.567-.933 14.03-2.76l-26.52-64.782Zm12.491-2.458c4.272 0 8.516.83 12.491 2.458l-26.52 64.781a37.03 37.03 0 0 0 14.03 2.76v-70Zm12.491 2.458a32.998 32.998 0 0 1 10.722 7.097L3.86 35.698a37.002 37.002 0 0 0 12.024 7.957l26.521-64.781Zm10.62 6.996-3.401-3.342L.56 32.456 3.963 35.8l49.062-49.93Zm-3.51-3.45a47.68 47.68 0 0 0-33.11-13.506l-.233 70A22.321 22.321 0 0 1 .67 32.562L49.514-17.58ZM16.288-31.086h-.08v70h.08v-70Z" mask="url(#a)"/><circle cx="16.5" cy="17.5" r="14.5" fill="#F54B64"/><circle cx="28" cy="29" r="14" fill="#F54B64"/><circle cx="42.5" cy="17.5" r="14.5" fill="#F54B64"/><path fill="#F54B64" d="M21 41.57 48.77 17l6.626 7.49-27.771 24.57z"/></svg>