<svg xmlns="http://www.w3.org/2000/svg" width="43" height="37" fill="none"><mask id="a" fill="#fff"><path d="M21.5 36.388a4.217 4.217 0 0 1-2.995-1.238L4.02 20.666a12.262 12.262 0 0 1-3.543-8.79A11.334 11.334 0 0 1 11.924.627a11.334 11.334 0 0 1 8.17 3.361L21.5 5.394l1.153-1.153a11.799 11.799 0 0 1 15.469-1.252A11.602 11.602 0 0 1 39.26 20.37L24.495 35.15a4.217 4.217 0 0 1-2.995 1.238ZM11.867 3.425a8.606 8.606 0 0 0-5.99 2.419 8.437 8.437 0 0 0-2.588 6.089 9.45 9.45 0 0 0 2.742 6.75l14.485 14.484a1.407 1.407 0 0 0 1.997 0l14.78-14.794a8.79 8.79 0 0 0 2.488-6.75 8.692 8.692 0 0 0-3.417-6.398 8.958 8.958 0 0 0-11.77.998l-2.096 2.152a1.407 1.407 0 0 1-1.996 0l-2.391-2.39a8.831 8.831 0 0 0-6.188-2.56h-.056Z"/></mask><path fill="#9E9E9E" d="M21.5 36.388a4.217 4.217 0 0 1-2.995-1.238L4.02 20.666a12.262 12.262 0 0 1-3.543-8.79A11.334 11.334 0 0 1 11.924.627a11.334 11.334 0 0 1 8.17 3.361L21.5 5.394l1.153-1.153a11.799 11.799 0 0 1 15.469-1.252A11.602 11.602 0 0 1 39.26 20.37L24.495 35.15a4.217 4.217 0 0 1-2.995 1.238ZM11.867 3.425a8.606 8.606 0 0 0-5.99 2.419 8.437 8.437 0 0 0-2.588 6.089 9.45 9.45 0 0 0 2.742 6.75l14.485 14.484a1.407 1.407 0 0 0 1.997 0l14.78-14.794a8.79 8.79 0 0 0 2.488-6.75 8.692 8.692 0 0 0-3.417-6.398 8.958 8.958 0 0 0-11.77.998l-2.096 2.152a1.407 1.407 0 0 1-1.996 0l-2.391-2.39a8.831 8.831 0 0 0-6.188-2.56h-.056Z"/><path fill="#9E9E9E" d="m21.5 36.388.086-35h-.172l.086 35Zm-2.995-1.238 24.764-24.733-.008-.008-.008-.008L18.505 35.15ZM4.02 20.666-20.862 45.28l.067.067.067.067L4.02 20.666Zm-3.543-8.79 34.996.472.002-.106v-.107L.478 11.877ZM11.924.627l-.349 34.999.35.003.351-.003L11.924.627Zm8.17 3.361-24.877 24.62.064.065.064.064L20.094 3.988ZM21.5 5.394-3.249 30.142 21.5 54.892l24.749-24.75L21.5 5.394Zm1.153-1.153 24.749 24.748.162-.161.16-.164L22.653 4.24Zm15.469-1.252 21.355-27.73-.267-.206-.27-.2L38.122 2.99ZM39.26 20.37l24.76 24.737.016-.015.015-.016-24.79-24.706ZM24.495 35.15-.265 10.413l-.004.004L24.495 35.15ZM11.867 3.425l-.036 35h.036v-35Zm-5.99 2.419 24.266 25.221.03-.029.03-.029L5.878 5.844Zm-2.588 6.089 34.998.345.002-.191v-.19l-35 .036Zm2.742 6.75L-18.81 43.338l.047.047.046.047 24.75-24.75Zm14.485 14.484L45.366 8.52l-.05-.05-.052-.052-24.748 24.75Zm1.997 0L-2.248 8.43l-.045.045-.044.045 24.85 24.647Zm14.78-14.794 24.76 24.737.123-.123.122-.125-25.006-24.489Zm2.488-6.75-34.937 2.1.01.146.01.146 34.917-2.392Zm-3.417-6.398L57.54-22.643l-.201-.153-.204-.15-20.77 28.171Zm-11.77.998 25.074 24.42.072-.075.072-.075-25.218-24.27Zm-2.096 2.152 24.85 24.647.113-.114.112-.114L22.498 8.375Zm-.457.308L35.5 40.99 22.041 8.683Zm-.541.108v-35 35Zm-.54-.108L7.498 40.99l13.46-32.308Zm-.458-.308 24.85-24.647-.051-.051-.05-.05L20.5 8.374Zm-2.391-2.39 24.749-24.75-.054-.053-.054-.054L18.11 5.984Zm-6.188-2.56.119-35h-.118v35Zm9.491-2.037c4.058-.01 8.078.782 11.83 2.332L6.513 68.416a39.218 39.218 0 0 0 15.072 2.971l-.172-70Zm11.83 2.332a30.78 30.78 0 0 1 10.025 6.697L-6.26 59.883a39.218 39.218 0 0 0 12.774 8.533L33.244 3.72Zm10.01 6.681L28.768-4.083l-49.497 49.497L-6.244 59.9l49.497-49.5ZM28.902-3.949a22.74 22.74 0 0 1 4.923 7.488l-64.922 26.176A47.261 47.261 0 0 0-20.862 45.28L28.902-3.949Zm4.923 7.488a22.739 22.739 0 0 1 1.647 8.809l-69.993-.943a47.26 47.26 0 0 0 3.424 18.31L33.826 3.54Zm1.65 8.596a23.666 23.666 0 0 1-1.875 9.057L-30.853-6.114a46.335 46.335 0 0 0-3.67 17.732l69.999.517ZM33.6 21.192a23.666 23.666 0 0 1-5.2 7.648l-49.066-49.925A46.334 46.334 0 0 0-30.853-6.114l64.454 27.306Zm-5.2 7.648a23.667 23.667 0 0 1-7.736 5.069L-5.52-31.01a46.333 46.333 0 0 0-15.146 9.924L28.399 28.84Zm-7.736 5.069a23.666 23.666 0 0 1-9.088 1.717l.697-69.997A46.334 46.334 0 0 0-5.521-31.01l26.184 64.918Zm-8.387 1.717a23.667 23.667 0 0 1-9.241-1.778l26.63-64.737a46.335 46.335 0 0 0-18.094-3.482l.705 69.997Zm-9.241-1.778a23.666 23.666 0 0 1-7.818-5.24l49.754-49.24A46.334 46.334 0 0 0 29.665-30.89L3.035 33.847Zm-7.69-5.11 1.406 1.405L46.25-19.355l-1.407-1.406-49.497 49.497Zm50.904 1.405 1.153-1.153-49.498-49.497-1.153 1.153L46.25 30.143Zm1.474-1.478A23.202 23.202 0 0 1 32.975 35.6L27.33-34.172a46.798 46.798 0 0 0-29.747 13.99l50.14 48.846ZM32.975 35.6a23.202 23.202 0 0 1-15.67-4.475L58.94-25.147a46.798 46.798 0 0 0-31.61-9.025L32.975 35.6Zm-16.208-4.88a23.398 23.398 0 0 1-6.369-7.527L72.161-9.751a46.601 46.601 0 0 0-12.684-14.99l-42.71 55.46Zm-6.369-7.527a23.398 23.398 0 0 1-2.703-9.482l69.85-4.578A46.602 46.602 0 0 0 72.161-9.75L10.398 23.193ZM7.695 13.71a23.398 23.398 0 0 1 1.443-9.753l65.534 24.601a46.601 46.601 0 0 0 2.873-19.426L7.695 13.71Zm1.443-9.753a23.398 23.398 0 0 1 5.332-8.294l49.582 49.412a46.602 46.602 0 0 0 10.62-16.517L9.138 3.958ZM14.5-4.367-.265 10.413l49.52 49.474 14.767-14.78L14.5-4.367ZM-.269 10.417A30.78 30.78 0 0 1 9.757 3.72l26.729 64.696a39.218 39.218 0 0 0 12.774-8.533L-.27 10.417ZM9.757 3.72a30.781 30.781 0 0 1 11.829-2.332l-.172 70a39.218 39.218 0 0 0 15.072-2.972L9.756 3.72Zm2.146-35.295A43.607 43.607 0 0 0-18.451-19.32l48.655 50.327a26.394 26.394 0 0 1-18.373 7.418l.072-70ZM-18.39-19.378a43.438 43.438 0 0 0-9.861 14.314l64.424 27.376a26.562 26.562 0 0 1-6.03 8.753L-18.39-19.378Zm-9.861 14.314a43.438 43.438 0 0 0-3.46 17.034l70-.074a26.563 26.563 0 0 1-2.116 10.416L-28.25-5.064Zm-3.458 16.652a44.45 44.45 0 0 0 3.266 17.168L36.41 2.41a25.55 25.55 0 0 1 1.877 9.868l-69.996-.69Zm3.266 17.168a44.45 44.45 0 0 0 9.632 14.582l49.684-49.31A25.548 25.548 0 0 1 36.41 2.41l-64.853 26.346Zm9.726 14.675 14.484 14.485L45.264 8.418 30.78-6.066l-49.498 49.498Zm14.383 14.383a36.406 36.406 0 0 0 11.847 7.97l26.92-64.617A33.592 33.592 0 0 1 45.366 8.52l-49.7 49.294Zm11.847 7.97a36.407 36.407 0 0 0 14.001 2.8v-70c4.434 0 8.825.877 12.92 2.583L7.513 65.783Zm14.001 2.8c4.806 0 9.564-.952 14.001-2.8L8.595 1.166a33.594 33.594 0 0 1 12.92-2.584v70Zm14.001-2.8a36.407 36.407 0 0 0 11.847-7.97L-2.338 8.52A33.594 33.594 0 0 1 8.596 1.167l26.92 64.616Zm11.758-7.88 14.78-14.794L12.532-6.364-2.248 8.43l49.521 49.474Zm15.025-15.042a43.79 43.79 0 0 0 9.8-15.488L6.42 3.156a26.21 26.21 0 0 1 5.865-9.271l50.012 48.977Zm9.8-15.488A43.79 43.79 0 0 0 74.7 9.232L4.862 14.015A26.21 26.21 0 0 1 6.42 3.155l65.676 24.219Zm2.62-17.85a43.69 43.69 0 0 0-5.073-17.962L7.9 24.54a26.31 26.31 0 0 1-3.055-10.816l69.874-4.199ZM69.645-8.438A43.692 43.692 0 0 0 57.54-22.643L15.19 33.093a26.31 26.31 0 0 1-7.29-8.554L69.645-8.438Zm-12.51-14.508a43.959 43.959 0 0 0-29.802-8.42l5.916 69.75a26.042 26.042 0 0 1-17.655-4.988l41.54-56.342Zm-29.802-8.42A43.958 43.958 0 0 0-.625-18.046l50.437 48.54a26.042 26.042 0 0 1-16.563 7.89l-5.916-69.75ZM-.481-18.196l-2.095 2.152 50.149 48.838 2.095-2.152L-.48-18.195Zm-1.87 1.924A33.594 33.594 0 0 1 8.58-23.625L35.5 40.99a36.407 36.407 0 0 0 11.847-7.969l-49.7-49.294ZM8.58-23.625A33.594 33.594 0 0 1 21.5-26.21v70a36.41 36.41 0 0 0 14.001-2.8L8.581-23.625ZM21.5-26.21c4.435 0 8.826.878 12.92 2.584L7.498 40.99a36.408 36.408 0 0 0 14.001 2.8v-70Zm12.92 2.584a33.594 33.594 0 0 1 10.932 7.353l-49.7 49.294a36.408 36.408 0 0 0 11.847 7.97l26.92-64.617Zm10.83 7.251-2.39-2.39-49.498 49.497 2.39 2.39L45.25-16.373Zm-2.498-2.498a43.831 43.831 0 0 0-30.71-12.703l-.237 70A26.169 26.169 0 0 1-6.53 30.84l49.281-49.713Zm-30.83-12.702h-.056v70h.056v-70Z" mask="url(#a)"/></svg>