<svg xmlns="http://www.w3.org/2000/svg" width="25" height="25" fill="none"><mask id="a" fill="#fff"><path d="M12.5 22.438a2.343 2.343 0 0 1-1.664-.688l-8.047-8.047A6.811 6.811 0 0 1 .82 8.82a6.297 6.297 0 0 1 6.36-6.25 6.297 6.297 0 0 1 4.539 1.868l.781.78.64-.64a6.555 6.555 0 0 1 8.594-.695 6.444 6.444 0 0 1 .633 9.656l-8.203 8.211a2.345 2.345 0 0 1-1.664.688ZM7.148 4.125A4.781 4.781 0 0 0 3.82 5.469a4.687 4.687 0 0 0-1.437 3.383 5.25 5.25 0 0 0 1.523 3.75l8.047 8.046a.783.783 0 0 0 1.11 0l8.21-8.218a4.882 4.882 0 0 0 1.383-3.75 4.829 4.829 0 0 0-1.898-3.555 4.977 4.977 0 0 0-6.54.555l-1.163 1.195a.78.78 0 0 1-1.11 0l-1.328-1.328A4.906 4.906 0 0 0 7.18 4.125h-.032Z"/></mask><path fill="#9E9E9E" d="M12.5 22.438a2.343 2.343 0 0 1-1.664-.688l-8.047-8.047A6.811 6.811 0 0 1 .82 8.82a6.297 6.297 0 0 1 6.36-6.25 6.297 6.297 0 0 1 4.539 1.868l.781.78.64-.64a6.555 6.555 0 0 1 8.594-.695 6.444 6.444 0 0 1 .633 9.656l-8.203 8.211a2.345 2.345 0 0 1-1.664.688ZM7.148 4.125A4.781 4.781 0 0 0 3.82 5.469a4.687 4.687 0 0 0-1.437 3.383 5.25 5.25 0 0 0 1.523 3.75l8.047 8.046a.783.783 0 0 0 1.11 0l8.21-8.218a4.882 4.882 0 0 0 1.383-3.75 4.829 4.829 0 0 0-1.898-3.555 4.977 4.977 0 0 0-6.54.555l-1.163 1.195a.78.78 0 0 1-1.11 0l-1.328-1.328A4.906 4.906 0 0 0 7.18 4.125h-.032Z"/><path fill="#9E9E9E" d="m12.5 22.438.086-35h-.172l.086 35Zm-1.664-.688L35.6-2.983l-.008-.008-.007-.008-24.75 24.749Zm-8.047-8.047-24.882 24.615.066.067.067.067L2.79 13.703ZM.82 8.82l34.997.472.002-.107V9.08L.82 8.82Zm6.36-6.25-.35 35 .35.003.351-.003-.351-35Zm4.539 1.868-24.877 24.62.064.064.064.064L11.719 4.438Zm.781.78-24.749 24.75L12.5 54.716l24.749-24.748L12.5 5.218Zm.64-.64 24.75 24.749.161-.162.16-.164L13.14 4.578Zm8.594-.695 21.355-27.73-.266-.206-.27-.2-20.82 28.136Zm.633 9.656 24.76 24.737.016-.015.015-.016-24.79-24.706Zm-8.203 8.211-24.76-24.737-.004.004L14.164 21.75ZM7.148 4.125l-.035 35h.035v-35ZM3.82 5.469 28.087 30.69l.03-.029.03-.029L3.82 5.47ZM2.383 8.852l34.998.345.002-.191v-.191l-35 .037Zm1.523 3.75-24.842 24.655.047.047.046.046 24.75-24.748Zm8.047 8.046 24.85-24.647-.05-.05-.051-.051-24.749 24.748Zm1.11 0L-11.698-4.088l-.045.045-.044.045 24.85 24.647Zm8.21-8.218 24.761 24.737.123-.124.123-.125L21.273 12.43Zm1.383-3.75-34.937 2.1.01.145.01.146L22.655 8.68Zm-1.898-3.555 21.175-27.868-.202-.153-.203-.15-20.77 28.171Zm-6.54.555 25.075 24.419.072-.075.072-.075L14.22 5.68Zm-1.163 1.195 24.85 24.647.112-.113.112-.115L13.055 6.875Zm-.555.231v-35 35Zm-.555-.231 24.85-24.647-.05-.051-.05-.05-24.75 24.748Zm-1.328-1.328 24.749-24.749-.054-.054-.054-.054-24.64 24.857ZM7.18 4.125l.118-35H7.18v35Zm5.234-16.687c4.306-.01 8.57.83 12.55 2.474l-26.73 64.696a37.343 37.343 0 0 0 14.352 2.83l-.172-70Zm12.55 2.474A32.657 32.657 0 0 1 35.6-2.983l-49.528 49.466a37.343 37.343 0 0 0 12.163 8.125l26.729-64.696Zm10.62 7.09-8.046-8.048-49.498 49.498 8.047 8.047L35.585-3Zm-7.913-7.913a28.187 28.187 0 0 1 6.104 9.282l-64.922 26.177a41.812 41.812 0 0 0 9.054 13.77l49.764-49.23Zm6.104 9.282a28.187 28.187 0 0 1 2.042 10.92l-69.993-.942a41.814 41.814 0 0 0 3.03 16.199L33.773-1.63ZM35.819 9.08a28.703 28.703 0 0 1-2.273 10.985L-30.908-7.243a41.296 41.296 0 0 0-3.27 15.805l69.997.517Zm-2.273 10.985a28.703 28.703 0 0 1-6.31 9.274L-21.83-20.587a41.297 41.297 0 0 0-9.078 13.344l64.454 27.307Zm-6.31 9.274a28.704 28.704 0 0 1-9.382 6.148L-8.331-29.432a41.298 41.298 0 0 0-13.499 8.845l49.066 49.925Zm-9.382 6.148A28.703 28.703 0 0 1 6.83 37.57l.697-69.997A41.297 41.297 0 0 0-8.33-29.432l26.185 64.918ZM7.532 37.57a28.702 28.702 0 0 1-11.208-2.157l26.63-64.737a41.297 41.297 0 0 0-16.127-3.103l.705 69.997Zm-11.208-2.157a28.702 28.702 0 0 1-9.482-6.355l49.754-49.24a41.298 41.298 0 0 0-13.642-9.142l-26.63 64.737Zm-9.354-6.226.781.782L37.25-19.53l-.782-.781-49.497 49.497Zm50.279.782.64-.641-49.497-49.498-.64.641 49.497 49.498ZM38.21 29a28.446 28.446 0 0 1-18.081 8.504l-5.645-69.772A41.554 41.554 0 0 0-11.93-19.845l50.14 48.846Zm-18.08 8.505A28.446 28.446 0 0 1 .917 32.019l41.635-56.272a41.554 41.554 0 0 0-28.067-8.014l5.645 69.772ZM.38 31.613a28.555 28.555 0 0 1-7.773-9.185L54.37-10.516a41.444 41.444 0 0 0-11.28-13.331L.38 31.613Zm-7.773-9.185a28.554 28.554 0 0 1-3.299-11.571l69.85-4.578a41.445 41.445 0 0 0-4.788-16.795L-7.393 22.428Zm-3.299-11.571a28.555 28.555 0 0 1 1.76-11.903l65.535 24.601A41.444 41.444 0 0 0 59.158 6.28l-69.85 4.578Zm1.76-11.903a28.554 28.554 0 0 1 6.508-10.121l49.582 49.412a41.446 41.446 0 0 0 9.445-14.69L-8.93-1.046Zm6.539-10.152-8.203 8.211 49.52 49.474 8.204-8.211-49.521-49.474ZM-10.6-2.983A32.657 32.657 0 0 1 .036-10.088l26.73 64.696a37.342 37.342 0 0 0 12.162-8.125L-10.6-2.983ZM.036-10.088a32.657 32.657 0 0 1 12.55-2.474l-.172 70c4.923.011 9.8-.95 14.351-2.83L.036-10.088Zm7.148-20.787a39.781 39.781 0 0 0-27.69 11.18l48.653 50.327a30.219 30.219 0 0 1-21.034 8.493l.071-70Zm-27.63 11.122a39.687 39.687 0 0 0-9.01 13.078l64.424 27.377a30.313 30.313 0 0 1-6.881 9.988l-48.533-50.443Zm-9.01 13.078a39.687 39.687 0 0 0-3.161 15.563l70-.073a30.31 30.31 0 0 1-2.415 11.887L-29.456-6.675Zm-3.16 15.182a40.25 40.25 0 0 0 2.958 15.545L35.195-2.294a29.75 29.75 0 0 1 2.186 11.49l-69.996-.69Zm2.958 15.545a40.249 40.249 0 0 0 8.722 13.205l49.684-49.31a29.749 29.749 0 0 1 6.447 9.76l-64.853 26.345Zm8.816 13.298 8.046 8.047L36.702-4.1l-8.047-8.047-49.498 49.497Zm7.945 7.945a35.782 35.782 0 0 0 11.644 7.833l26.92-64.617a34.218 34.218 0 0 1 11.136 7.49l-49.7 49.294Zm11.644 7.833a35.78 35.78 0 0 0 13.76 2.752v-70c4.518 0 8.99.894 13.16 2.631l-26.92 64.617Zm13.76 2.752c4.724 0 9.4-.936 13.761-2.752L-.652-11.49a34.22 34.22 0 0 1 13.16-2.631v70Zm13.761-2.752a35.78 35.78 0 0 0 11.645-7.833l-49.7-49.294a34.219 34.219 0 0 1 11.135-7.49l26.92 64.617Zm11.555-7.743 8.211-8.218-49.521-49.474-8.211 8.218 49.521 49.474Zm8.457-8.467a39.883 39.883 0 0 0 8.925-14.106L-10.472-1.407a30.118 30.118 0 0 1 6.74-10.652L46.28 36.918Zm8.925-14.106a39.883 39.883 0 0 0 2.37-16.524l-69.837 4.783c-.29-4.239.32-8.491 1.79-12.478l65.677 24.219ZM57.593 6.58A39.828 39.828 0 0 0 52.97-9.793L-8.777 23.183a30.172 30.172 0 0 1-3.504-12.404L57.593 6.58ZM52.97-9.793a39.828 39.828 0 0 0-11.036-12.95L-.417 32.993a30.172 30.172 0 0 1-8.36-9.81L52.969-9.793ZM41.53-23.046a39.977 39.977 0 0 0-27.103-7.657l5.916 69.75A30.023 30.023 0 0 1-.013 33.295l41.541-56.342Zm-27.103-7.657A39.977 39.977 0 0 0-11-18.59l50.437 48.54a30.023 30.023 0 0 1-19.095 9.097l-5.916-69.75Zm-25.282 11.964-1.164 1.195L38.13 31.294l1.164-1.195-50.149-48.838Zm-.94.967A34.217 34.217 0 0 1-.66-25.262l26.92 64.616a35.78 35.78 0 0 0 11.645-7.832l-49.7-49.294Zm11.136-7.49a34.217 34.217 0 0 1 13.16-2.632v70c4.724 0 9.4-.935 13.76-2.752L-.66-25.262Zm13.16-2.632c4.517 0 8.99.895 13.16 2.632L-1.26 39.354a35.782 35.782 0 0 0 13.76 2.752v-70Zm13.16 2.632a34.217 34.217 0 0 1 11.135 7.49l-49.7 49.294A35.782 35.782 0 0 0-1.26 39.354l26.92-64.616Zm11.034 7.388-1.328-1.328-49.498 49.498 1.329 1.328 49.497-49.498Zm-1.436-1.436a39.906 39.906 0 0 0-27.96-11.565l-.237 70a30.094 30.094 0 0 1-21.084-8.722l49.28-49.713ZM7.18-30.875h-.032v70h.032v-70Z" mask="url(#a)"/></svg>