<svg xmlns="http://www.w3.org/2000/svg" width="30" height="30" fill="none"><path fill="#9E9E9E" d="M15.01 8.608c-3.608 0-6.598 2.938-6.598 6.598a6.577 6.577 0 0 0 6.598 6.597c3.66 0 6.598-2.99 6.598-6.598 0-3.607-2.99-6.597-6.598-6.597Zm0 10.824c-2.32 0-4.227-1.907-4.227-4.226 0-2.32 1.908-4.227 4.227-4.227 2.32 0 4.227 1.907 4.227 4.227 0 2.319-1.907 4.226-4.227 4.226Zm6.855-9.484a1.495 1.495 0 1 0 0-2.99 1.495 1.495 0 0 0 0 2.99Z"/><path fill="#9E9E9E" d="M25.731 4.587c-1.34-1.391-3.247-2.113-5.412-2.113H9.701c-4.484 0-7.474 2.99-7.474 7.474v10.567c0 2.216.722 4.123 2.165 5.515 1.392 1.34 3.247 2.01 5.36 2.01h10.515c2.217 0 4.072-.722 5.413-2.01 1.391-1.34 2.113-3.248 2.113-5.464V9.948c0-2.165-.722-4.02-2.062-5.36Zm-.206 15.98c0 1.597-.567 2.886-1.495 3.762-.928.876-2.216 1.34-3.763 1.34H9.752c-1.546 0-2.834-.464-3.762-1.34-.928-.928-1.392-2.217-1.392-3.814V9.948c0-1.546.464-2.835 1.392-3.763.876-.876 2.216-1.34 3.762-1.34H20.37c1.547 0 2.835.464 3.763 1.392.877.928 1.392 2.216 1.392 3.711v10.618Z"/></svg>