<svg xmlns="http://www.w3.org/2000/svg" width="33" height="32" fill="none"><path fill="#9E9E9E" fill-rule="evenodd" d="M30.742 8.239c.222-.704 0-1.216-.983-1.216H26.49c-.824 0-1.205.448-1.427.928 0 0-1.682 4.094-4.03 6.749-.761.767-1.11 1.023-1.523 1.023-.222 0-.508-.256-.508-.959V8.206c0-.832-.253-1.215-.952-1.215h-5.14c-.508 0-.826.383-.826.767 0 .8 1.175.992 1.301 3.231v4.865c0 1.055-.187 1.248-.603 1.248-1.11 0-3.807-4.126-5.425-8.828-.315-.931-.634-1.283-1.46-1.283h-3.3c-.951 0-1.11.447-1.11.927 0 .864 1.11 5.214 5.172 10.971 2.697 3.932 6.536 6.046 9.995 6.046 2.095 0 2.348-.48 2.348-1.28V20.68c0-.959.19-1.119.857-1.119.476 0 1.333.256 3.268 2.143 2.221 2.239 2.602 3.263 3.84 3.263h3.268c.951 0 1.396-.48 1.142-1.408-.285-.927-1.365-2.27-2.76-3.87-.762-.895-1.905-1.887-2.254-2.367-.475-.64-.348-.895 0-1.47-.031 0 3.967-5.694 4.379-7.616" clip-rule="evenodd"/></svg>