<svg xmlns="http://www.w3.org/2000/svg" width="32" height="32" fill="none"><g clip-path="url(#a)"><path fill="#9E9E9E" d="M31.024 8.153a3.937 3.937 0 0 0-2.78-2.78c-2.452-.657-12.284-.657-12.284-.657s-9.832 0-12.284.657a3.938 3.938 0 0 0-2.78 2.78C.24 10.605.24 15.721.24 15.721s0 5.116.657 7.568a3.938 3.938 0 0 0 2.78 2.78c2.452.657 12.284.657 12.284.657s9.832 0 12.284-.657a3.937 3.937 0 0 0 2.78-2.78c.657-2.452.657-7.568.657-7.568s0-5.116-.657-7.568Z"/><path fill="#34302D" d="m12.816 20.437 8.168-4.716-8.168-4.716v9.432Z"/></g><defs><clipPath id="a"><path fill="#fff" d="M.24 0h31.44v31.442H.24z"/></clipPath></defs></svg>