<svg width="45" height="45" viewBox="0 0 45 45" fill="none" xmlns="http://www.w3.org/2000/svg">
<path d="M4.82141 11.25C4.82141 10.3624 5.54096 9.64285 6.42855 9.64285H38.5714C39.459 9.64285 40.1786 10.3624 40.1786 11.25C40.1786 12.1376 39.459 12.8571 38.5714 12.8571H6.42855C5.54096 12.8571 4.82141 12.1376 4.82141 11.25Z" fill="#9E9E9E"/>
<path d="M4.82141 22.5C4.82141 21.6124 5.54096 20.8929 6.42855 20.8929H38.5714C39.459 20.8929 40.1786 21.6124 40.1786 22.5C40.1786 23.3876 39.459 24.1071 38.5714 24.1071H6.42855C5.54096 24.1071 4.82141 23.3876 4.82141 22.5Z" fill="#9E9E9E"/>
<path d="M6.42855 32.1429C5.54096 32.1429 4.82141 32.8624 4.82141 33.75C4.82141 34.6376 5.54096 35.3571 6.42855 35.3571H38.5714C39.459 35.3571 40.1786 34.6376 40.1786 33.75C40.1786 32.8624 39.459 32.1429 38.5714 32.1429H6.42855Z" fill="#9E9E9E"/>
</svg>
