<svg width="35" height="35" viewBox="0 0 35 35" fill="none" xmlns="http://www.w3.org/2000/svg">
<path d="M34.1393 30.0258L25.0626 20.947C26.8717 18.1214 27.5733 14.7268 27.0326 11.4152C26.492 8.10371 24.7473 5.1087 22.1335 3.00541C19.5197 0.902128 16.2213 -0.161139 12.8715 0.0198175C9.52178 0.200774 6.35697 1.61319 3.98489 3.98582C1.61282 6.35844 0.200727 9.52399 0.0198129 12.8745C-0.161101 16.225 0.901918 19.5243 3.00472 22.1386C5.10751 24.753 8.10183 26.4981 11.4126 27.0389C14.7234 27.5797 18.1172 26.8779 20.9422 25.0684L30.0188 34.1472C30.5655 34.6933 31.3065 35 32.079 35C32.8516 35 33.5926 34.6933 34.1393 34.1472C34.4119 33.8778 34.6284 33.5569 34.7762 33.2031C34.9239 32.8494 35 32.4699 35 32.0865C35 31.7031 34.9239 31.3236 34.7762 30.9698C34.6284 30.6161 34.4119 30.2952 34.1393 30.0258ZM3.89677 13.618C3.89677 11.6955 4.46673 9.81615 5.53456 8.21766C6.60239 6.61917 8.12014 5.3733 9.89587 4.63759C11.6716 3.90189 13.6256 3.70939 15.5107 4.08445C17.3958 4.45951 19.1274 5.38528 20.4865 6.74468C21.8456 8.10409 22.7711 9.83608 23.1461 11.7216C23.5211 13.6072 23.3286 15.5616 22.5931 17.3377C21.8575 19.1139 20.612 20.632 19.0138 21.7001C17.4157 22.7681 15.5368 23.3382 13.6148 23.3382C11.0374 23.3382 8.5656 22.3141 6.74312 20.4912C4.92063 18.6683 3.89677 16.1959 3.89677 13.618Z" fill="#9E9E9E"/>
</svg>
