<svg width="40" height="40" viewBox="0 0 40 40" fill="none" xmlns="http://www.w3.org/2000/svg">
<path d="M20 23.3333C24.6024 23.3333 28.3334 18.8562 28.3334 13.3333C28.3334 7.8105 24.6024 3.33334 20 3.33334C15.3976 3.33334 11.6667 7.8105 11.6667 13.3333C11.6667 18.8562 15.3976 23.3333 20 23.3333Z" fill="#9E9E9E"/>
<path d="M36.3334 31.8333C34.8334 28.8333 32 26.3333 28.3333 24.8333C27.3333 24.5 26.1667 24.5 25.3333 25C23.6667 26 22 26.5 20 26.5C18 26.5 16.3334 26 14.6667 25C13.8333 24.6667 12.6667 24.5 11.6667 25C8.00002 26.5 5.16668 29 3.66668 32C2.50002 34.1667 4.33335 36.6667 6.83335 36.6667H33.1667C35.6667 36.6667 37.5 34.1667 36.3334 31.8333Z" fill="#9E9E9E"/>
</svg>
